<svg xmlns="http://www.w3.org/2000/svg" xmlns:xlink="http://www.w3.org/1999/xlink" width="870" zoomAndPan="magnify" viewBox="0 0 652.5 72.749999" height="97" preserveAspectRatio="xMidYMid meet" version="1.2"><defs><clipPath id="1dc6b1635b"><path d="M 0.867188 0 L 651.132812 0 L 651.132812 72.5 L 0.867188 72.5 Z M 0.867188 0 "/></clipPath><clipPath id="c854e29e6d"><path d="M 501.597656 10.820312 L 550.929688 10.820312 L 550.929688 60.152344 L 501.597656 60.152344 Z M 501.597656 10.820312 "/></clipPath><clipPath id="c0adddb323"><path d="M 501.597656 11.546875 L 550.929688 11.546875 L 550.929688 60.878906 L 501.597656 60.878906 Z M 501.597656 11.546875 "/></clipPath></defs><g id="78b8db8bf3"><g clip-rule="nonzero" clip-path="url(#1dc6b1635b)"><path style=" stroke:none;fill-rule:nonzero;fill:#ffffff;fill-opacity:1;" d="M 0.867188 0 L 651.132812 0 L 651.132812 72.5 L 0.867188 72.5 Z M 0.867188 0 "/><path style=" stroke:none;fill-rule:nonzero;fill:#ffffff;fill-opacity:1;" d="M 0.867188 0 L 651.132812 0 L 651.132812 72.5 L 0.867188 72.5 Z M 0.867188 0 "/></g><g style="fill:#4e3d42;fill-opacity:1;"><g transform="translate(84.458436, 51.963536)"><path style="stroke:none" d="M 27.765625 -5.125 C 28.078125 -4.039062 28.367188 -3.144531 28.640625 -2.4375 C 28.910156 -1.738281 29.285156 -0.925781 29.765625 0 L 23.78125 0 C 23.75 -1.082031 23.644531 -1.953125 23.46875 -2.609375 C 23.300781 -3.265625 23.070312 -4.101562 22.78125 -5.125 L 20.296875 -13.921875 L 7.46875 -13.921875 L 4.875 -4.875 C 4.625 -3.988281 4.398438 -3.207031 4.203125 -2.53125 C 4.015625 -1.863281 3.875 -1.019531 3.78125 0 L 2.390625 0 C 2.929688 -1.050781 3.289062 -1.894531 3.46875 -2.53125 C 3.644531 -3.175781 3.859375 -3.941406 4.109375 -4.828125 L 12.875 -35.703125 C 13 -36.210938 13.050781 -36.640625 13.03125 -36.984375 C 13.019531 -37.335938 12.9375 -37.769531 12.78125 -38.28125 L 18.421875 -38.28125 Z M 7.65625 -14.6875 L 20.09375 -14.6875 L 13.875 -36.65625 Z M 7.65625 -14.6875 "/></g></g><g style="fill:#4e3d42;fill-opacity:1;"><g transform="translate(113.938845, 51.963536)"><path style="stroke:none" d="M 30.828125 -38.28125 L 28.71875 -35.609375 C 26.675781 -36.441406 24.773438 -36.96875 23.015625 -37.1875 C 21.265625 -37.40625 19.863281 -37.515625 18.8125 -37.515625 L 18.234375 -37.515625 L 18.234375 -9.421875 C 18.234375 -8.273438 18.25 -7.238281 18.28125 -6.3125 C 18.3125 -5.382812 18.347656 -4.4375 18.390625 -3.46875 C 18.441406 -2.5 18.519531 -1.34375 18.625 0 L 13.15625 0 C 13.257812 -1.34375 13.332031 -2.5 13.375 -3.46875 C 13.425781 -4.4375 13.46875 -5.382812 13.5 -6.3125 C 13.53125 -7.238281 13.546875 -8.273438 13.546875 -9.421875 L 13.546875 -37.515625 L 12.96875 -37.515625 C 11.914062 -37.515625 10.519531 -37.40625 8.78125 -37.1875 C 7.039062 -36.96875 5.132812 -36.441406 3.0625 -35.609375 L 0.953125 -38.28125 Z M 30.828125 -38.28125 "/></g></g><g style="fill:#4e3d42;fill-opacity:1;"><g transform="translate(143.036381, 51.963536)"><path style="stroke:none" d="M 3.34375 -38.28125 L 25.9375 -38.28125 L 23.78125 -35.609375 C 22.445312 -36.148438 21.066406 -36.554688 19.640625 -36.828125 C 18.222656 -37.097656 16.921875 -37.28125 15.734375 -37.375 C 14.554688 -37.46875 13.601562 -37.515625 12.875 -37.515625 L 8.515625 -37.515625 L 8.515625 -20.671875 L 11.578125 -20.671875 C 12.859375 -20.671875 14.210938 -20.691406 15.640625 -20.734375 C 17.078125 -20.785156 18.914062 -20.925781 21.15625 -21.15625 L 21.15625 -19.4375 C 18.914062 -19.6875 17.078125 -19.828125 15.640625 -19.859375 C 14.210938 -19.890625 12.859375 -19.90625 11.578125 -19.90625 L 8.515625 -19.90625 L 8.515625 -0.765625 L 13.875 -0.765625 C 15.46875 -0.765625 16.9375 -0.800781 18.28125 -0.875 C 19.625 -0.957031 21.003906 -1.132812 22.421875 -1.40625 C 23.835938 -1.675781 25.441406 -2.066406 27.234375 -2.578125 L 25.84375 0 L 3.34375 0 C 3.476562 -1.34375 3.578125 -2.5 3.640625 -3.46875 C 3.703125 -4.4375 3.738281 -5.382812 3.75 -6.3125 C 3.769531 -7.238281 3.78125 -8.273438 3.78125 -9.421875 L 3.78125 -28.859375 C 3.78125 -30.035156 3.769531 -31.078125 3.75 -31.984375 C 3.738281 -32.898438 3.703125 -33.84375 3.640625 -34.8125 C 3.578125 -35.789062 3.476562 -36.945312 3.34375 -38.28125 Z M 3.34375 -38.28125 "/></g></g><g style="fill:#4e3d42;fill-opacity:1;"><g transform="translate(169.02307, 51.963536)"><path style="stroke:none" d="M 3.453125 -38.28125 L 8.90625 -38.28125 C 8.8125 -36.945312 8.726562 -35.789062 8.65625 -34.8125 C 8.59375 -33.84375 8.550781 -32.898438 8.53125 -31.984375 C 8.519531 -31.078125 8.515625 -30.035156 8.515625 -28.859375 L 8.515625 -0.765625 L 12.546875 -0.765625 C 14.140625 -0.765625 15.601562 -0.800781 16.9375 -0.875 C 18.28125 -0.957031 19.660156 -1.132812 21.078125 -1.40625 C 22.503906 -1.675781 24.109375 -2.066406 25.890625 -2.578125 L 24.5 0 L 3.34375 0 C 3.476562 -1.34375 3.578125 -2.5 3.640625 -3.46875 C 3.703125 -4.4375 3.75 -5.382812 3.78125 -6.3125 C 3.8125 -7.238281 3.828125 -8.273438 3.828125 -9.421875 L 3.828125 -28.859375 C 3.828125 -30.035156 3.816406 -31.078125 3.796875 -31.984375 C 3.785156 -32.898438 3.75 -33.84375 3.6875 -34.8125 C 3.625 -35.789062 3.546875 -36.945312 3.453125 -38.28125 Z M 3.453125 -38.28125 "/></g></g><g style="fill:#4e3d42;fill-opacity:1;"><g transform="translate(194.148303, 51.963536)"><path style="stroke:none" d="M 3.34375 -38.28125 L 8.8125 -38.28125 C 8.707031 -36.945312 8.625 -35.789062 8.5625 -34.8125 C 8.5 -33.84375 8.457031 -32.898438 8.4375 -31.984375 C 8.425781 -31.078125 8.421875 -30.035156 8.421875 -28.859375 L 8.421875 -9.421875 C 8.421875 -8.273438 8.425781 -7.238281 8.4375 -6.3125 C 8.457031 -5.382812 8.5 -4.4375 8.5625 -3.46875 C 8.625 -2.5 8.707031 -1.34375 8.8125 0 L 3.34375 0 C 3.445312 -1.34375 3.53125 -2.5 3.59375 -3.46875 C 3.65625 -4.4375 3.691406 -5.382812 3.703125 -6.3125 C 3.722656 -7.238281 3.734375 -8.273438 3.734375 -9.421875 L 3.734375 -28.859375 C 3.734375 -30.035156 3.722656 -31.078125 3.703125 -31.984375 C 3.691406 -32.898438 3.65625 -33.84375 3.59375 -34.8125 C 3.53125 -35.789062 3.445312 -36.945312 3.34375 -38.28125 Z M 3.34375 -38.28125 "/></g></g><g style="fill:#4e3d42;fill-opacity:1;"><g transform="translate(203.623619, 51.963536)"><path style="stroke:none" d="M 3.34375 -38.28125 L 25.9375 -38.28125 L 23.78125 -35.609375 C 22.445312 -36.148438 21.066406 -36.554688 19.640625 -36.828125 C 18.222656 -37.097656 16.921875 -37.28125 15.734375 -37.375 C 14.554688 -37.46875 13.601562 -37.515625 12.875 -37.515625 L 8.515625 -37.515625 L 8.515625 -20.671875 L 11.578125 -20.671875 C 12.859375 -20.671875 14.210938 -20.691406 15.640625 -20.734375 C 17.078125 -20.785156 18.914062 -20.925781 21.15625 -21.15625 L 21.15625 -19.4375 C 18.914062 -19.6875 17.078125 -19.828125 15.640625 -19.859375 C 14.210938 -19.890625 12.859375 -19.90625 11.578125 -19.90625 L 8.515625 -19.90625 L 8.515625 -0.765625 L 13.875 -0.765625 C 15.46875 -0.765625 16.9375 -0.800781 18.28125 -0.875 C 19.625 -0.957031 21.003906 -1.132812 22.421875 -1.40625 C 23.835938 -1.675781 25.441406 -2.066406 27.234375 -2.578125 L 25.84375 0 L 3.34375 0 C 3.476562 -1.34375 3.578125 -2.5 3.640625 -3.46875 C 3.703125 -4.4375 3.738281 -5.382812 3.75 -6.3125 C 3.769531 -7.238281 3.78125 -8.273438 3.78125 -9.421875 L 3.78125 -28.859375 C 3.78125 -30.035156 3.769531 -31.078125 3.75 -31.984375 C 3.738281 -32.898438 3.703125 -33.84375 3.640625 -34.8125 C 3.578125 -35.789062 3.476562 -36.945312 3.34375 -38.28125 Z M 3.34375 -38.28125 "/></g></g><g style="fill:#4e3d42;fill-opacity:1;"><g transform="translate(229.610308, 51.963536)"><path style="stroke:none" d="M 25.515625 -9.09375 C 26.335938 -6.957031 27.15625 -5.28125 27.96875 -4.0625 C 28.78125 -2.851562 29.710938 -1.992188 30.765625 -1.484375 C 31.828125 -0.972656 33.085938 -0.71875 34.546875 -0.71875 L 34.546875 0 C 31.929688 0 29.738281 -0.257812 27.96875 -0.78125 C 26.195312 -1.3125 24.742188 -2.210938 23.609375 -3.484375 C 22.484375 -4.765625 21.519531 -6.523438 20.71875 -8.765625 C 19.832031 -11.285156 18.882812 -13.179688 17.875 -14.453125 C 16.875 -15.734375 15.75 -16.59375 14.5 -17.03125 C 13.257812 -17.476562 11.804688 -17.703125 10.140625 -17.703125 L 8.421875 -17.703125 L 8.421875 -9.421875 C 8.421875 -8.273438 8.425781 -7.238281 8.4375 -6.3125 C 8.457031 -5.382812 8.5 -4.4375 8.5625 -3.46875 C 8.625 -2.5 8.707031 -1.34375 8.8125 0 L 3.34375 0 C 3.445312 -1.34375 3.53125 -2.5 3.59375 -3.46875 C 3.65625 -4.4375 3.691406 -5.382812 3.703125 -6.3125 C 3.722656 -7.238281 3.734375 -8.273438 3.734375 -9.421875 L 3.734375 -28.859375 C 3.734375 -30.035156 3.722656 -31.078125 3.703125 -31.984375 C 3.691406 -32.898438 3.65625 -33.84375 3.59375 -34.8125 C 3.53125 -35.789062 3.445312 -36.945312 3.34375 -38.28125 L 12.203125 -38.28125 C 14.335938 -38.28125 16.363281 -38.128906 18.28125 -37.828125 C 20.195312 -37.523438 21.894531 -37 23.375 -36.25 C 24.863281 -35.5 26.03125 -34.453125 26.875 -33.109375 C 27.71875 -31.773438 28.140625 -30.070312 28.140625 -28 C 28.140625 -25.570312 27.582031 -23.644531 26.46875 -22.21875 C 25.351562 -20.800781 23.84375 -19.757812 21.9375 -19.09375 C 20.039062 -18.425781 17.910156 -17.992188 15.546875 -17.796875 C 17.628906 -17.421875 19.519531 -16.59375 21.21875 -15.3125 C 22.925781 -14.039062 24.359375 -11.96875 25.515625 -9.09375 Z M 8.421875 -18.46875 L 12.15625 -18.46875 C 13.5625 -18.46875 14.925781 -18.609375 16.25 -18.890625 C 17.570312 -19.179688 18.757812 -19.675781 19.8125 -20.375 C 20.863281 -21.082031 21.703125 -22.050781 22.328125 -23.28125 C 22.953125 -24.507812 23.265625 -26.082031 23.265625 -28 C 23.265625 -29.914062 22.953125 -31.484375 22.328125 -32.703125 C 21.703125 -33.929688 20.863281 -34.894531 19.8125 -35.59375 C 18.757812 -36.300781 17.570312 -36.796875 16.25 -37.078125 C 14.925781 -37.367188 13.5625 -37.515625 12.15625 -37.515625 L 8.421875 -37.515625 Z M 8.421875 -18.46875 "/></g></g><g style="fill:#4e3d42;fill-opacity:1;"><g transform="translate(263.254453, 51.963536)"><path style="stroke:none" d=""/></g></g><g style="fill:#4e3d42;fill-opacity:1;"><g transform="translate(274.261264, 51.963536)"><path style="stroke:none" d="M 1.921875 -11.4375 L 5.75 -13.3125 C 6.0625 -10.65625 6.769531 -8.3125 7.875 -6.28125 C 8.976562 -4.257812 10.375 -2.675781 12.0625 -1.53125 C 13.75 -0.382812 15.644531 0.1875 17.75 0.1875 C 19.957031 0.1875 21.796875 -0.40625 23.265625 -1.59375 C 24.734375 -2.789062 25.46875 -4.601562 25.46875 -7.03125 C 25.46875 -8.4375 25.007812 -9.742188 24.09375 -10.953125 C 23.1875 -12.171875 21.878906 -13.445312 20.171875 -14.78125 C 18.460938 -16.125 16.410156 -17.707031 14.015625 -19.53125 C 11.753906 -21.21875 9.90625 -22.660156 8.46875 -23.859375 C 7.03125 -25.054688 5.976562 -26.242188 5.3125 -27.421875 C 4.644531 -28.597656 4.3125 -29.972656 4.3125 -31.546875 C 4.3125 -34.023438 5.210938 -35.925781 7.015625 -37.25 C 8.816406 -38.582031 11.101562 -39.25 13.875 -39.25 C 16.71875 -39.25 19.195312 -38.515625 21.3125 -37.046875 C 23.4375 -35.578125 25.332031 -33.359375 27 -30.390625 L 23.15625 -28.953125 C 22.875 -30.515625 22.375 -32.019531 21.65625 -33.46875 C 20.9375 -34.925781 19.929688 -36.125 18.640625 -37.0625 C 17.347656 -38.007812 15.679688 -38.484375 13.640625 -38.484375 C 11.597656 -38.484375 9.992188 -38.003906 8.828125 -37.046875 C 7.660156 -36.085938 7.078125 -34.8125 7.078125 -33.21875 C 7.078125 -31.96875 7.390625 -30.878906 8.015625 -29.953125 C 8.640625 -29.035156 9.597656 -28.082031 10.890625 -27.09375 C 12.179688 -26.101562 13.816406 -24.875 15.796875 -23.40625 C 18.503906 -21.425781 20.773438 -19.6875 22.609375 -18.1875 C 24.441406 -16.6875 25.828125 -15.203125 26.765625 -13.734375 C 27.710938 -12.265625 28.1875 -10.539062 28.1875 -8.5625 C 28.1875 -6.425781 27.695312 -4.65625 26.71875 -3.25 C 25.75 -1.851562 24.453125 -0.800781 22.828125 -0.09375 C 21.203125 0.601562 19.414062 0.953125 17.46875 0.953125 C 15.238281 0.953125 13.140625 0.5625 11.171875 -0.21875 C 9.210938 -1 7.453125 -2.296875 5.890625 -4.109375 C 4.328125 -5.929688 3.003906 -8.375 1.921875 -11.4375 Z M 1.921875 -11.4375 "/></g></g><g style="fill:#4e3d42;fill-opacity:1;"><g transform="translate(301.683717, 51.963536)"><path style="stroke:none" d="M 27.765625 -5.125 C 28.078125 -4.039062 28.367188 -3.144531 28.640625 -2.4375 C 28.910156 -1.738281 29.285156 -0.925781 29.765625 0 L 23.78125 0 C 23.75 -1.082031 23.644531 -1.953125 23.46875 -2.609375 C 23.300781 -3.265625 23.070312 -4.101562 22.78125 -5.125 L 20.296875 -13.921875 L 7.46875 -13.921875 L 4.875 -4.875 C 4.625 -3.988281 4.398438 -3.207031 4.203125 -2.53125 C 4.015625 -1.863281 3.875 -1.019531 3.78125 0 L 2.390625 0 C 2.929688 -1.050781 3.289062 -1.894531 3.46875 -2.53125 C 3.644531 -3.175781 3.859375 -3.941406 4.109375 -4.828125 L 12.875 -35.703125 C 13 -36.210938 13.050781 -36.640625 13.03125 -36.984375 C 13.019531 -37.335938 12.9375 -37.769531 12.78125 -38.28125 L 18.421875 -38.28125 Z M 7.65625 -14.6875 L 20.09375 -14.6875 L 13.875 -36.65625 Z M 7.65625 -14.6875 "/></g></g><g style="fill:#4e3d42;fill-opacity:1;"><g transform="translate(331.16415, 51.963536)"><path style="stroke:none" d="M 25.515625 -9.09375 C 26.335938 -6.957031 27.15625 -5.28125 27.96875 -4.0625 C 28.78125 -2.851562 29.710938 -1.992188 30.765625 -1.484375 C 31.828125 -0.972656 33.085938 -0.71875 34.546875 -0.71875 L 34.546875 0 C 31.929688 0 29.738281 -0.257812 27.96875 -0.78125 C 26.195312 -1.3125 24.742188 -2.210938 23.609375 -3.484375 C 22.484375 -4.765625 21.519531 -6.523438 20.71875 -8.765625 C 19.832031 -11.285156 18.882812 -13.179688 17.875 -14.453125 C 16.875 -15.734375 15.75 -16.59375 14.5 -17.03125 C 13.257812 -17.476562 11.804688 -17.703125 10.140625 -17.703125 L 8.421875 -17.703125 L 8.421875 -9.421875 C 8.421875 -8.273438 8.425781 -7.238281 8.4375 -6.3125 C 8.457031 -5.382812 8.5 -4.4375 8.5625 -3.46875 C 8.625 -2.5 8.707031 -1.34375 8.8125 0 L 3.34375 0 C 3.445312 -1.34375 3.53125 -2.5 3.59375 -3.46875 C 3.65625 -4.4375 3.691406 -5.382812 3.703125 -6.3125 C 3.722656 -7.238281 3.734375 -8.273438 3.734375 -9.421875 L 3.734375 -28.859375 C 3.734375 -30.035156 3.722656 -31.078125 3.703125 -31.984375 C 3.691406 -32.898438 3.65625 -33.84375 3.59375 -34.8125 C 3.53125 -35.789062 3.445312 -36.945312 3.34375 -38.28125 L 12.203125 -38.28125 C 14.335938 -38.28125 16.363281 -38.128906 18.28125 -37.828125 C 20.195312 -37.523438 21.894531 -37 23.375 -36.25 C 24.863281 -35.5 26.03125 -34.453125 26.875 -33.109375 C 27.71875 -31.773438 28.140625 -30.070312 28.140625 -28 C 28.140625 -25.570312 27.582031 -23.644531 26.46875 -22.21875 C 25.351562 -20.800781 23.84375 -19.757812 21.9375 -19.09375 C 20.039062 -18.425781 17.910156 -17.992188 15.546875 -17.796875 C 17.628906 -17.421875 19.519531 -16.59375 21.21875 -15.3125 C 22.925781 -14.039062 24.359375 -11.96875 25.515625 -9.09375 Z M 8.421875 -18.46875 L 12.15625 -18.46875 C 13.5625 -18.46875 14.925781 -18.609375 16.25 -18.890625 C 17.570312 -19.179688 18.757812 -19.675781 19.8125 -20.375 C 20.863281 -21.082031 21.703125 -22.050781 22.328125 -23.28125 C 22.953125 -24.507812 23.265625 -26.082031 23.265625 -28 C 23.265625 -29.914062 22.953125 -31.484375 22.328125 -32.703125 C 21.703125 -33.929688 20.863281 -34.894531 19.8125 -35.59375 C 18.757812 -36.300781 17.570312 -36.796875 16.25 -37.078125 C 14.925781 -37.367188 13.5625 -37.515625 12.15625 -37.515625 L 8.421875 -37.515625 Z M 8.421875 -18.46875 "/></g></g><g style="fill:#4e3d42;fill-opacity:1;"><g transform="translate(364.808282, 51.963536)"><path style="stroke:none" d="M 29.296875 -5.078125 C 30.117188 -4.085938 30.878906 -3.222656 31.578125 -2.484375 C 32.285156 -1.753906 33.195312 -0.925781 34.3125 0 L 27 0 C 26.488281 -0.925781 25.96875 -1.722656 25.4375 -2.390625 C 24.90625 -3.054688 24.195312 -3.9375 23.3125 -5.03125 L 11.484375 -19.484375 L 8.421875 -16.171875 L 8.421875 -9.421875 C 8.421875 -8.273438 8.425781 -7.238281 8.4375 -6.3125 C 8.457031 -5.382812 8.5 -4.4375 8.5625 -3.46875 C 8.625 -2.5 8.707031 -1.34375 8.8125 0 L 3.34375 0 C 3.445312 -1.34375 3.53125 -2.5 3.59375 -3.46875 C 3.65625 -4.4375 3.691406 -5.382812 3.703125 -6.3125 C 3.722656 -7.238281 3.734375 -8.273438 3.734375 -9.421875 L 3.734375 -28.859375 C 3.734375 -30.035156 3.722656 -31.078125 3.703125 -31.984375 C 3.691406 -32.898438 3.65625 -33.84375 3.59375 -34.8125 C 3.53125 -35.789062 3.445312 -36.945312 3.34375 -38.28125 L 8.8125 -38.28125 C 8.707031 -36.945312 8.625 -35.789062 8.5625 -34.8125 C 8.5 -33.84375 8.457031 -32.898438 8.4375 -31.984375 C 8.425781 -31.078125 8.421875 -30.035156 8.421875 -28.859375 L 8.421875 -17.28125 L 23.5 -33.546875 C 24.300781 -34.410156 24.992188 -35.1875 25.578125 -35.875 C 26.171875 -36.5625 26.769531 -37.363281 27.375 -38.28125 L 29.34375 -38.28125 C 28.25 -37.363281 27.351562 -36.5625 26.65625 -35.875 C 25.957031 -35.1875 25.238281 -34.441406 24.5 -33.640625 L 14.734375 -23.0625 Z M 29.296875 -5.078125 "/></g></g><g style="fill:#4e3d42;fill-opacity:1;"><g transform="translate(397.87811, 51.963536)"><path style="stroke:none" d="M 27.765625 -5.125 C 28.078125 -4.039062 28.367188 -3.144531 28.640625 -2.4375 C 28.910156 -1.738281 29.285156 -0.925781 29.765625 0 L 23.78125 0 C 23.75 -1.082031 23.644531 -1.953125 23.46875 -2.609375 C 23.300781 -3.265625 23.070312 -4.101562 22.78125 -5.125 L 20.296875 -13.921875 L 7.46875 -13.921875 L 4.875 -4.875 C 4.625 -3.988281 4.398438 -3.207031 4.203125 -2.53125 C 4.015625 -1.863281 3.875 -1.019531 3.78125 0 L 2.390625 0 C 2.929688 -1.050781 3.289062 -1.894531 3.46875 -2.53125 C 3.644531 -3.175781 3.859375 -3.941406 4.109375 -4.828125 L 12.875 -35.703125 C 13 -36.210938 13.050781 -36.640625 13.03125 -36.984375 C 13.019531 -37.335938 12.9375 -37.769531 12.78125 -38.28125 L 18.421875 -38.28125 Z M 7.65625 -14.6875 L 20.09375 -14.6875 L 13.875 -36.65625 Z M 7.65625 -14.6875 "/></g></g><g style="fill:#4e3d42;fill-opacity:1;"><g transform="translate(427.35852, 51.963536)"><path style="stroke:none" d="M 31.875 -28.859375 L 31.875 -9.421875 C 31.875 -8.273438 31.878906 -7.238281 31.890625 -6.3125 C 31.910156 -5.382812 31.953125 -4.4375 32.015625 -3.46875 C 32.078125 -2.5 32.15625 -1.34375 32.25 0 L 26.84375 0 L 4.40625 -36.421875 L 4.40625 -9.421875 C 4.40625 -8.273438 4.410156 -7.238281 4.421875 -6.3125 C 4.441406 -5.382812 4.484375 -4.4375 4.546875 -3.46875 C 4.609375 -2.5 4.6875 -1.34375 4.78125 0 L 3.34375 0 C 3.445312 -1.34375 3.53125 -2.5 3.59375 -3.46875 C 3.65625 -4.4375 3.691406 -5.382812 3.703125 -6.3125 C 3.722656 -7.238281 3.734375 -8.273438 3.734375 -9.421875 L 3.734375 -28.859375 C 3.734375 -30.035156 3.722656 -31.078125 3.703125 -31.984375 C 3.691406 -32.898438 3.65625 -33.84375 3.59375 -34.8125 C 3.53125 -35.789062 3.445312 -36.945312 3.34375 -38.28125 L 8.765625 -38.28125 L 31.203125 -1.859375 L 31.203125 -28.859375 C 31.203125 -30.035156 31.191406 -31.078125 31.171875 -31.984375 C 31.160156 -32.898438 31.128906 -33.84375 31.078125 -34.8125 C 31.035156 -35.789062 30.953125 -36.945312 30.828125 -38.28125 L 32.25 -38.28125 C 32.15625 -36.945312 32.078125 -35.789062 32.015625 -34.8125 C 31.953125 -33.84375 31.910156 -32.898438 31.890625 -31.984375 C 31.878906 -31.078125 31.875 -30.035156 31.875 -28.859375 Z M 31.875 -28.859375 "/></g></g><g style="fill:#4e3d42;fill-opacity:1;"><g transform="translate(460.28476, 51.963536)"><path style="stroke:none" d="M 28.09375 -33.84375 L 19.234375 -16.515625 L 19.234375 -9.421875 C 19.234375 -8.273438 19.238281 -7.238281 19.25 -6.3125 C 19.269531 -5.382812 19.304688 -4.4375 19.359375 -3.46875 C 19.410156 -2.5 19.484375 -1.34375 19.578125 0 L 14.125 0 C 14.25 -1.34375 14.332031 -2.5 14.375 -3.46875 C 14.425781 -4.4375 14.457031 -5.382812 14.46875 -6.3125 C 14.488281 -7.238281 14.5 -8.273438 14.5 -9.421875 L 14.5 -16.515625 L 5.359375 -33.78125 C 4.878906 -34.707031 4.441406 -35.472656 4.046875 -36.078125 C 3.648438 -36.691406 3.097656 -37.425781 2.390625 -38.28125 L 8.65625 -38.28125 C 8.976562 -37.363281 9.28125 -36.609375 9.5625 -36.015625 C 9.851562 -35.421875 10.238281 -34.675781 10.71875 -33.78125 L 19.09375 -18 L 27.28125 -33.78125 C 27.757812 -34.707031 28.132812 -35.457031 28.40625 -36.03125 C 28.675781 -36.613281 29.003906 -37.363281 29.390625 -38.28125 L 30.671875 -38.28125 C 30.066406 -37.363281 29.597656 -36.609375 29.265625 -36.015625 C 28.929688 -35.421875 28.539062 -34.695312 28.09375 -33.84375 Z M 28.09375 -33.84375 "/></g></g><g style="fill:#4e3d42;fill-opacity:1;"><g transform="translate(490.675761, 51.963536)"><path style="stroke:none" d=""/></g></g><g style="fill:#4e3d42;fill-opacity:1;"><g transform="translate(501.682572, 51.963536)"><path style="stroke:none" d=""/></g></g><g style="fill:#4e3d42;fill-opacity:1;"><g transform="translate(512.689383, 51.963536)"><path style="stroke:none" d=""/></g></g><g style="fill:#4e3d42;fill-opacity:1;"><g transform="translate(523.696194, 51.963536)"><path style="stroke:none" d=""/></g></g><g style="fill:#4e3d42;fill-opacity:1;"><g transform="translate(534.703005, 51.963536)"><path style="stroke:none" d=""/></g></g><g style="fill:#4e3d42;fill-opacity:1;"><g transform="translate(545.709816, 51.963536)"><path style="stroke:none" d=""/></g></g><g style="fill:#4e3d42;fill-opacity:1;"><g transform="translate(556.716627, 51.963536)"><path style="stroke:none" d=""/></g></g><g style="fill:#b89c52;fill-opacity:1;"><g transform="translate(85.205867, 51.216105)"><path style="stroke:none" d="M 27.765625 -5.125 C 28.078125 -4.039062 28.367188 -3.144531 28.640625 -2.4375 C 28.910156 -1.738281 29.285156 -0.925781 29.765625 0 L 23.78125 0 C 23.75 -1.082031 23.644531 -1.953125 23.46875 -2.609375 C 23.300781 -3.265625 23.070312 -4.101562 22.78125 -5.125 L 20.296875 -13.921875 L 7.46875 -13.921875 L 4.875 -4.875 C 4.625 -3.988281 4.398438 -3.207031 4.203125 -2.53125 C 4.015625 -1.863281 3.875 -1.019531 3.78125 0 L 2.390625 0 C 2.929688 -1.050781 3.289062 -1.894531 3.46875 -2.53125 C 3.644531 -3.175781 3.859375 -3.941406 4.109375 -4.828125 L 12.875 -35.703125 C 13 -36.210938 13.050781 -36.640625 13.03125 -36.984375 C 13.019531 -37.335938 12.9375 -37.769531 12.78125 -38.28125 L 18.421875 -38.28125 Z M 7.65625 -14.6875 L 20.09375 -14.6875 L 13.875 -36.65625 Z M 7.65625 -14.6875 "/></g></g><g style="fill:#b89c52;fill-opacity:1;"><g transform="translate(114.686277, 51.216105)"><path style="stroke:none" d="M 30.828125 -38.28125 L 28.71875 -35.609375 C 26.675781 -36.441406 24.773438 -36.96875 23.015625 -37.1875 C 21.265625 -37.40625 19.863281 -37.515625 18.8125 -37.515625 L 18.234375 -37.515625 L 18.234375 -9.421875 C 18.234375 -8.273438 18.25 -7.238281 18.28125 -6.3125 C 18.3125 -5.382812 18.347656 -4.4375 18.390625 -3.46875 C 18.441406 -2.5 18.519531 -1.34375 18.625 0 L 13.15625 0 C 13.257812 -1.34375 13.332031 -2.5 13.375 -3.46875 C 13.425781 -4.4375 13.46875 -5.382812 13.5 -6.3125 C 13.53125 -7.238281 13.546875 -8.273438 13.546875 -9.421875 L 13.546875 -37.515625 L 12.96875 -37.515625 C 11.914062 -37.515625 10.519531 -37.40625 8.78125 -37.1875 C 7.039062 -36.96875 5.132812 -36.441406 3.0625 -35.609375 L 0.953125 -38.28125 Z M 30.828125 -38.28125 "/></g></g><g style="fill:#b89c52;fill-opacity:1;"><g transform="translate(143.783812, 51.216105)"><path style="stroke:none" d="M 3.34375 -38.28125 L 25.9375 -38.28125 L 23.78125 -35.609375 C 22.445312 -36.148438 21.066406 -36.554688 19.640625 -36.828125 C 18.222656 -37.097656 16.921875 -37.28125 15.734375 -37.375 C 14.554688 -37.46875 13.601562 -37.515625 12.875 -37.515625 L 8.515625 -37.515625 L 8.515625 -20.671875 L 11.578125 -20.671875 C 12.859375 -20.671875 14.210938 -20.691406 15.640625 -20.734375 C 17.078125 -20.785156 18.914062 -20.925781 21.15625 -21.15625 L 21.15625 -19.4375 C 18.914062 -19.6875 17.078125 -19.828125 15.640625 -19.859375 C 14.210938 -19.890625 12.859375 -19.90625 11.578125 -19.90625 L 8.515625 -19.90625 L 8.515625 -0.765625 L 13.875 -0.765625 C 15.46875 -0.765625 16.9375 -0.800781 18.28125 -0.875 C 19.625 -0.957031 21.003906 -1.132812 22.421875 -1.40625 C 23.835938 -1.675781 25.441406 -2.066406 27.234375 -2.578125 L 25.84375 0 L 3.34375 0 C 3.476562 -1.34375 3.578125 -2.5 3.640625 -3.46875 C 3.703125 -4.4375 3.738281 -5.382812 3.75 -6.3125 C 3.769531 -7.238281 3.78125 -8.273438 3.78125 -9.421875 L 3.78125 -28.859375 C 3.78125 -30.035156 3.769531 -31.078125 3.75 -31.984375 C 3.738281 -32.898438 3.703125 -33.84375 3.640625 -34.8125 C 3.578125 -35.789062 3.476562 -36.945312 3.34375 -38.28125 Z M 3.34375 -38.28125 "/></g></g><g style="fill:#b89c52;fill-opacity:1;"><g transform="translate(169.770502, 51.216105)"><path style="stroke:none" d="M 3.453125 -38.28125 L 8.90625 -38.28125 C 8.8125 -36.945312 8.726562 -35.789062 8.65625 -34.8125 C 8.59375 -33.84375 8.550781 -32.898438 8.53125 -31.984375 C 8.519531 -31.078125 8.515625 -30.035156 8.515625 -28.859375 L 8.515625 -0.765625 L 12.546875 -0.765625 C 14.140625 -0.765625 15.601562 -0.800781 16.9375 -0.875 C 18.28125 -0.957031 19.660156 -1.132812 21.078125 -1.40625 C 22.503906 -1.675781 24.109375 -2.066406 25.890625 -2.578125 L 24.5 0 L 3.34375 0 C 3.476562 -1.34375 3.578125 -2.5 3.640625 -3.46875 C 3.703125 -4.4375 3.75 -5.382812 3.78125 -6.3125 C 3.8125 -7.238281 3.828125 -8.273438 3.828125 -9.421875 L 3.828125 -28.859375 C 3.828125 -30.035156 3.816406 -31.078125 3.796875 -31.984375 C 3.785156 -32.898438 3.75 -33.84375 3.6875 -34.8125 C 3.625 -35.789062 3.546875 -36.945312 3.453125 -38.28125 Z M 3.453125 -38.28125 "/></g></g><g style="fill:#b89c52;fill-opacity:1;"><g transform="translate(194.895734, 51.216105)"><path style="stroke:none" d="M 3.34375 -38.28125 L 8.8125 -38.28125 C 8.707031 -36.945312 8.625 -35.789062 8.5625 -34.8125 C 8.5 -33.84375 8.457031 -32.898438 8.4375 -31.984375 C 8.425781 -31.078125 8.421875 -30.035156 8.421875 -28.859375 L 8.421875 -9.421875 C 8.421875 -8.273438 8.425781 -7.238281 8.4375 -6.3125 C 8.457031 -5.382812 8.5 -4.4375 8.5625 -3.46875 C 8.625 -2.5 8.707031 -1.34375 8.8125 0 L 3.34375 0 C 3.445312 -1.34375 3.53125 -2.5 3.59375 -3.46875 C 3.65625 -4.4375 3.691406 -5.382812 3.703125 -6.3125 C 3.722656 -7.238281 3.734375 -8.273438 3.734375 -9.421875 L 3.734375 -28.859375 C 3.734375 -30.035156 3.722656 -31.078125 3.703125 -31.984375 C 3.691406 -32.898438 3.65625 -33.84375 3.59375 -34.8125 C 3.53125 -35.789062 3.445312 -36.945312 3.34375 -38.28125 Z M 3.34375 -38.28125 "/></g></g><g style="fill:#b89c52;fill-opacity:1;"><g transform="translate(204.37105, 51.216105)"><path style="stroke:none" d="M 3.34375 -38.28125 L 25.9375 -38.28125 L 23.78125 -35.609375 C 22.445312 -36.148438 21.066406 -36.554688 19.640625 -36.828125 C 18.222656 -37.097656 16.921875 -37.28125 15.734375 -37.375 C 14.554688 -37.46875 13.601562 -37.515625 12.875 -37.515625 L 8.515625 -37.515625 L 8.515625 -20.671875 L 11.578125 -20.671875 C 12.859375 -20.671875 14.210938 -20.691406 15.640625 -20.734375 C 17.078125 -20.785156 18.914062 -20.925781 21.15625 -21.15625 L 21.15625 -19.4375 C 18.914062 -19.6875 17.078125 -19.828125 15.640625 -19.859375 C 14.210938 -19.890625 12.859375 -19.90625 11.578125 -19.90625 L 8.515625 -19.90625 L 8.515625 -0.765625 L 13.875 -0.765625 C 15.46875 -0.765625 16.9375 -0.800781 18.28125 -0.875 C 19.625 -0.957031 21.003906 -1.132812 22.421875 -1.40625 C 23.835938 -1.675781 25.441406 -2.066406 27.234375 -2.578125 L 25.84375 0 L 3.34375 0 C 3.476562 -1.34375 3.578125 -2.5 3.640625 -3.46875 C 3.703125 -4.4375 3.738281 -5.382812 3.75 -6.3125 C 3.769531 -7.238281 3.78125 -8.273438 3.78125 -9.421875 L 3.78125 -28.859375 C 3.78125 -30.035156 3.769531 -31.078125 3.75 -31.984375 C 3.738281 -32.898438 3.703125 -33.84375 3.640625 -34.8125 C 3.578125 -35.789062 3.476562 -36.945312 3.34375 -38.28125 Z M 3.34375 -38.28125 "/></g></g><g style="fill:#b89c52;fill-opacity:1;"><g transform="translate(230.35774, 51.216105)"><path style="stroke:none" d="M 25.515625 -9.09375 C 26.335938 -6.957031 27.15625 -5.28125 27.96875 -4.0625 C 28.78125 -2.851562 29.710938 -1.992188 30.765625 -1.484375 C 31.828125 -0.972656 33.085938 -0.71875 34.546875 -0.71875 L 34.546875 0 C 31.929688 0 29.738281 -0.257812 27.96875 -0.78125 C 26.195312 -1.3125 24.742188 -2.210938 23.609375 -3.484375 C 22.484375 -4.765625 21.519531 -6.523438 20.71875 -8.765625 C 19.832031 -11.285156 18.882812 -13.179688 17.875 -14.453125 C 16.875 -15.734375 15.75 -16.59375 14.5 -17.03125 C 13.257812 -17.476562 11.804688 -17.703125 10.140625 -17.703125 L 8.421875 -17.703125 L 8.421875 -9.421875 C 8.421875 -8.273438 8.425781 -7.238281 8.4375 -6.3125 C 8.457031 -5.382812 8.5 -4.4375 8.5625 -3.46875 C 8.625 -2.5 8.707031 -1.34375 8.8125 0 L 3.34375 0 C 3.445312 -1.34375 3.53125 -2.5 3.59375 -3.46875 C 3.65625 -4.4375 3.691406 -5.382812 3.703125 -6.3125 C 3.722656 -7.238281 3.734375 -8.273438 3.734375 -9.421875 L 3.734375 -28.859375 C 3.734375 -30.035156 3.722656 -31.078125 3.703125 -31.984375 C 3.691406 -32.898438 3.65625 -33.84375 3.59375 -34.8125 C 3.53125 -35.789062 3.445312 -36.945312 3.34375 -38.28125 L 12.203125 -38.28125 C 14.335938 -38.28125 16.363281 -38.128906 18.28125 -37.828125 C 20.195312 -37.523438 21.894531 -37 23.375 -36.25 C 24.863281 -35.5 26.03125 -34.453125 26.875 -33.109375 C 27.71875 -31.773438 28.140625 -30.070312 28.140625 -28 C 28.140625 -25.570312 27.582031 -23.644531 26.46875 -22.21875 C 25.351562 -20.800781 23.84375 -19.757812 21.9375 -19.09375 C 20.039062 -18.425781 17.910156 -17.992188 15.546875 -17.796875 C 17.628906 -17.421875 19.519531 -16.59375 21.21875 -15.3125 C 22.925781 -14.039062 24.359375 -11.96875 25.515625 -9.09375 Z M 8.421875 -18.46875 L 12.15625 -18.46875 C 13.5625 -18.46875 14.925781 -18.609375 16.25 -18.890625 C 17.570312 -19.179688 18.757812 -19.675781 19.8125 -20.375 C 20.863281 -21.082031 21.703125 -22.050781 22.328125 -23.28125 C 22.953125 -24.507812 23.265625 -26.082031 23.265625 -28 C 23.265625 -29.914062 22.953125 -31.484375 22.328125 -32.703125 C 21.703125 -33.929688 20.863281 -34.894531 19.8125 -35.59375 C 18.757812 -36.300781 17.570312 -36.796875 16.25 -37.078125 C 14.925781 -37.367188 13.5625 -37.515625 12.15625 -37.515625 L 8.421875 -37.515625 Z M 8.421875 -18.46875 "/></g></g><g style="fill:#b89c52;fill-opacity:1;"><g transform="translate(275.008696, 51.216105)"><path style="stroke:none" d="M 1.921875 -11.4375 L 5.75 -13.3125 C 6.0625 -10.65625 6.769531 -8.3125 7.875 -6.28125 C 8.976562 -4.257812 10.375 -2.675781 12.0625 -1.53125 C 13.75 -0.382812 15.644531 0.1875 17.75 0.1875 C 19.957031 0.1875 21.796875 -0.40625 23.265625 -1.59375 C 24.734375 -2.789062 25.46875 -4.601562 25.46875 -7.03125 C 25.46875 -8.4375 25.007812 -9.742188 24.09375 -10.953125 C 23.1875 -12.171875 21.878906 -13.445312 20.171875 -14.78125 C 18.460938 -16.125 16.410156 -17.707031 14.015625 -19.53125 C 11.753906 -21.21875 9.90625 -22.660156 8.46875 -23.859375 C 7.03125 -25.054688 5.976562 -26.242188 5.3125 -27.421875 C 4.644531 -28.597656 4.3125 -29.972656 4.3125 -31.546875 C 4.3125 -34.023438 5.210938 -35.925781 7.015625 -37.25 C 8.816406 -38.582031 11.101562 -39.25 13.875 -39.25 C 16.71875 -39.25 19.195312 -38.515625 21.3125 -37.046875 C 23.4375 -35.578125 25.332031 -33.359375 27 -30.390625 L 23.15625 -28.953125 C 22.875 -30.515625 22.375 -32.019531 21.65625 -33.46875 C 20.9375 -34.925781 19.929688 -36.125 18.640625 -37.0625 C 17.347656 -38.007812 15.679688 -38.484375 13.640625 -38.484375 C 11.597656 -38.484375 9.992188 -38.003906 8.828125 -37.046875 C 7.660156 -36.085938 7.078125 -34.8125 7.078125 -33.21875 C 7.078125 -31.96875 7.390625 -30.878906 8.015625 -29.953125 C 8.640625 -29.035156 9.597656 -28.082031 10.890625 -27.09375 C 12.179688 -26.101562 13.816406 -24.875 15.796875 -23.40625 C 18.503906 -21.425781 20.773438 -19.6875 22.609375 -18.1875 C 24.441406 -16.6875 25.828125 -15.203125 26.765625 -13.734375 C 27.710938 -12.265625 28.1875 -10.539062 28.1875 -8.5625 C 28.1875 -6.425781 27.695312 -4.65625 26.71875 -3.25 C 25.75 -1.851562 24.453125 -0.800781 22.828125 -0.09375 C 21.203125 0.601562 19.414062 0.953125 17.46875 0.953125 C 15.238281 0.953125 13.140625 0.5625 11.171875 -0.21875 C 9.210938 -1 7.453125 -2.296875 5.890625 -4.109375 C 4.328125 -5.929688 3.003906 -8.375 1.921875 -11.4375 Z M 1.921875 -11.4375 "/></g></g><g style="fill:#b89c52;fill-opacity:1;"><g transform="translate(302.431148, 51.216105)"><path style="stroke:none" d="M 27.765625 -5.125 C 28.078125 -4.039062 28.367188 -3.144531 28.640625 -2.4375 C 28.910156 -1.738281 29.285156 -0.925781 29.765625 0 L 23.78125 0 C 23.75 -1.082031 23.644531 -1.953125 23.46875 -2.609375 C 23.300781 -3.265625 23.070312 -4.101562 22.78125 -5.125 L 20.296875 -13.921875 L 7.46875 -13.921875 L 4.875 -4.875 C 4.625 -3.988281 4.398438 -3.207031 4.203125 -2.53125 C 4.015625 -1.863281 3.875 -1.019531 3.78125 0 L 2.390625 0 C 2.929688 -1.050781 3.289062 -1.894531 3.46875 -2.53125 C 3.644531 -3.175781 3.859375 -3.941406 4.109375 -4.828125 L 12.875 -35.703125 C 13 -36.210938 13.050781 -36.640625 13.03125 -36.984375 C 13.019531 -37.335938 12.9375 -37.769531 12.78125 -38.28125 L 18.421875 -38.28125 Z M 7.65625 -14.6875 L 20.09375 -14.6875 L 13.875 -36.65625 Z M 7.65625 -14.6875 "/></g></g><g style="fill:#b89c52;fill-opacity:1;"><g transform="translate(331.911581, 51.216105)"><path style="stroke:none" d="M 25.515625 -9.09375 C 26.335938 -6.957031 27.15625 -5.28125 27.96875 -4.0625 C 28.78125 -2.851562 29.710938 -1.992188 30.765625 -1.484375 C 31.828125 -0.972656 33.085938 -0.71875 34.546875 -0.71875 L 34.546875 0 C 31.929688 0 29.738281 -0.257812 27.96875 -0.78125 C 26.195312 -1.3125 24.742188 -2.210938 23.609375 -3.484375 C 22.484375 -4.765625 21.519531 -6.523438 20.71875 -8.765625 C 19.832031 -11.285156 18.882812 -13.179688 17.875 -14.453125 C 16.875 -15.734375 15.75 -16.59375 14.5 -17.03125 C 13.257812 -17.476562 11.804688 -17.703125 10.140625 -17.703125 L 8.421875 -17.703125 L 8.421875 -9.421875 C 8.421875 -8.273438 8.425781 -7.238281 8.4375 -6.3125 C 8.457031 -5.382812 8.5 -4.4375 8.5625 -3.46875 C 8.625 -2.5 8.707031 -1.34375 8.8125 0 L 3.34375 0 C 3.445312 -1.34375 3.53125 -2.5 3.59375 -3.46875 C 3.65625 -4.4375 3.691406 -5.382812 3.703125 -6.3125 C 3.722656 -7.238281 3.734375 -8.273438 3.734375 -9.421875 L 3.734375 -28.859375 C 3.734375 -30.035156 3.722656 -31.078125 3.703125 -31.984375 C 3.691406 -32.898438 3.65625 -33.84375 3.59375 -34.8125 C 3.53125 -35.789062 3.445312 -36.945312 3.34375 -38.28125 L 12.203125 -38.28125 C 14.335938 -38.28125 16.363281 -38.128906 18.28125 -37.828125 C 20.195312 -37.523438 21.894531 -37 23.375 -36.25 C 24.863281 -35.5 26.03125 -34.453125 26.875 -33.109375 C 27.71875 -31.773438 28.140625 -30.070312 28.140625 -28 C 28.140625 -25.570312 27.582031 -23.644531 26.46875 -22.21875 C 25.351562 -20.800781 23.84375 -19.757812 21.9375 -19.09375 C 20.039062 -18.425781 17.910156 -17.992188 15.546875 -17.796875 C 17.628906 -17.421875 19.519531 -16.59375 21.21875 -15.3125 C 22.925781 -14.039062 24.359375 -11.96875 25.515625 -9.09375 Z M 8.421875 -18.46875 L 12.15625 -18.46875 C 13.5625 -18.46875 14.925781 -18.609375 16.25 -18.890625 C 17.570312 -19.179688 18.757812 -19.675781 19.8125 -20.375 C 20.863281 -21.082031 21.703125 -22.050781 22.328125 -23.28125 C 22.953125 -24.507812 23.265625 -26.082031 23.265625 -28 C 23.265625 -29.914062 22.953125 -31.484375 22.328125 -32.703125 C 21.703125 -33.929688 20.863281 -34.894531 19.8125 -35.59375 C 18.757812 -36.300781 17.570312 -36.796875 16.25 -37.078125 C 14.925781 -37.367188 13.5625 -37.515625 12.15625 -37.515625 L 8.421875 -37.515625 Z M 8.421875 -18.46875 "/></g></g><g style="fill:#b89c52;fill-opacity:1;"><g transform="translate(365.555714, 51.216105)"><path style="stroke:none" d="M 29.296875 -5.078125 C 30.117188 -4.085938 30.878906 -3.222656 31.578125 -2.484375 C 32.285156 -1.753906 33.195312 -0.925781 34.3125 0 L 27 0 C 26.488281 -0.925781 25.96875 -1.722656 25.4375 -2.390625 C 24.90625 -3.054688 24.195312 -3.9375 23.3125 -5.03125 L 11.484375 -19.484375 L 8.421875 -16.171875 L 8.421875 -9.421875 C 8.421875 -8.273438 8.425781 -7.238281 8.4375 -6.3125 C 8.457031 -5.382812 8.5 -4.4375 8.5625 -3.46875 C 8.625 -2.5 8.707031 -1.34375 8.8125 0 L 3.34375 0 C 3.445312 -1.34375 3.53125 -2.5 3.59375 -3.46875 C 3.65625 -4.4375 3.691406 -5.382812 3.703125 -6.3125 C 3.722656 -7.238281 3.734375 -8.273438 3.734375 -9.421875 L 3.734375 -28.859375 C 3.734375 -30.035156 3.722656 -31.078125 3.703125 -31.984375 C 3.691406 -32.898438 3.65625 -33.84375 3.59375 -34.8125 C 3.53125 -35.789062 3.445312 -36.945312 3.34375 -38.28125 L 8.8125 -38.28125 C 8.707031 -36.945312 8.625 -35.789062 8.5625 -34.8125 C 8.5 -33.84375 8.457031 -32.898438 8.4375 -31.984375 C 8.425781 -31.078125 8.421875 -30.035156 8.421875 -28.859375 L 8.421875 -17.28125 L 23.5 -33.546875 C 24.300781 -34.410156 24.992188 -35.1875 25.578125 -35.875 C 26.171875 -36.5625 26.769531 -37.363281 27.375 -38.28125 L 29.34375 -38.28125 C 28.25 -37.363281 27.351562 -36.5625 26.65625 -35.875 C 25.957031 -35.1875 25.238281 -34.441406 24.5 -33.640625 L 14.734375 -23.0625 Z M 29.296875 -5.078125 "/></g></g><g style="fill:#b89c52;fill-opacity:1;"><g transform="translate(398.625542, 51.216105)"><path style="stroke:none" d="M 27.765625 -5.125 C 28.078125 -4.039062 28.367188 -3.144531 28.640625 -2.4375 C 28.910156 -1.738281 29.285156 -0.925781 29.765625 0 L 23.78125 0 C 23.75 -1.082031 23.644531 -1.953125 23.46875 -2.609375 C 23.300781 -3.265625 23.070312 -4.101562 22.78125 -5.125 L 20.296875 -13.921875 L 7.46875 -13.921875 L 4.875 -4.875 C 4.625 -3.988281 4.398438 -3.207031 4.203125 -2.53125 C 4.015625 -1.863281 3.875 -1.019531 3.78125 0 L 2.390625 0 C 2.929688 -1.050781 3.289062 -1.894531 3.46875 -2.53125 C 3.644531 -3.175781 3.859375 -3.941406 4.109375 -4.828125 L 12.875 -35.703125 C 13 -36.210938 13.050781 -36.640625 13.03125 -36.984375 C 13.019531 -37.335938 12.9375 -37.769531 12.78125 -38.28125 L 18.421875 -38.28125 Z M 7.65625 -14.6875 L 20.09375 -14.6875 L 13.875 -36.65625 Z M 7.65625 -14.6875 "/></g></g><g style="fill:#b89c52;fill-opacity:1;"><g transform="translate(428.105951, 51.216105)"><path style="stroke:none" d="M 31.875 -28.859375 L 31.875 -9.421875 C 31.875 -8.273438 31.878906 -7.238281 31.890625 -6.3125 C 31.910156 -5.382812 31.953125 -4.4375 32.015625 -3.46875 C 32.078125 -2.5 32.15625 -1.34375 32.25 0 L 26.84375 0 L 4.40625 -36.421875 L 4.40625 -9.421875 C 4.40625 -8.273438 4.410156 -7.238281 4.421875 -6.3125 C 4.441406 -5.382812 4.484375 -4.4375 4.546875 -3.46875 C 4.609375 -2.5 4.6875 -1.34375 4.78125 0 L 3.34375 0 C 3.445312 -1.34375 3.53125 -2.5 3.59375 -3.46875 C 3.65625 -4.4375 3.691406 -5.382812 3.703125 -6.3125 C 3.722656 -7.238281 3.734375 -8.273438 3.734375 -9.421875 L 3.734375 -28.859375 C 3.734375 -30.035156 3.722656 -31.078125 3.703125 -31.984375 C 3.691406 -32.898438 3.65625 -33.84375 3.59375 -34.8125 C 3.53125 -35.789062 3.445312 -36.945312 3.34375 -38.28125 L 8.765625 -38.28125 L 31.203125 -1.859375 L 31.203125 -28.859375 C 31.203125 -30.035156 31.191406 -31.078125 31.171875 -31.984375 C 31.160156 -32.898438 31.128906 -33.84375 31.078125 -34.8125 C 31.035156 -35.789062 30.953125 -36.945312 30.828125 -38.28125 L 32.25 -38.28125 C 32.15625 -36.945312 32.078125 -35.789062 32.015625 -34.8125 C 31.953125 -33.84375 31.910156 -32.898438 31.890625 -31.984375 C 31.878906 -31.078125 31.875 -30.035156 31.875 -28.859375 Z M 31.875 -28.859375 "/></g></g><g style="fill:#b89c52;fill-opacity:1;"><g transform="translate(461.032192, 51.216105)"><path style="stroke:none" d="M 28.09375 -33.84375 L 19.234375 -16.515625 L 19.234375 -9.421875 C 19.234375 -8.273438 19.238281 -7.238281 19.25 -6.3125 C 19.269531 -5.382812 19.304688 -4.4375 19.359375 -3.46875 C 19.410156 -2.5 19.484375 -1.34375 19.578125 0 L 14.125 0 C 14.25 -1.34375 14.332031 -2.5 14.375 -3.46875 C 14.425781 -4.4375 14.457031 -5.382812 14.46875 -6.3125 C 14.488281 -7.238281 14.5 -8.273438 14.5 -9.421875 L 14.5 -16.515625 L 5.359375 -33.78125 C 4.878906 -34.707031 4.441406 -35.472656 4.046875 -36.078125 C 3.648438 -36.691406 3.097656 -37.425781 2.390625 -38.28125 L 8.65625 -38.28125 C 8.976562 -37.363281 9.28125 -36.609375 9.5625 -36.015625 C 9.851562 -35.421875 10.238281 -34.675781 10.71875 -33.78125 L 19.09375 -18 L 27.28125 -33.78125 C 27.757812 -34.707031 28.132812 -35.457031 28.40625 -36.03125 C 28.675781 -36.613281 29.003906 -37.363281 29.390625 -38.28125 L 30.671875 -38.28125 C 30.066406 -37.363281 29.597656 -36.609375 29.265625 -36.015625 C 28.929688 -35.421875 28.539062 -34.695312 28.09375 -33.84375 Z M 28.09375 -33.84375 "/></g></g><g style="fill:#b89c52;fill-opacity:1;"><g transform="translate(491.423192, 51.216105)"><path style="stroke:none" d=""/></g></g><g style="fill:#b89c52;fill-opacity:1;"><g transform="translate(502.430003, 51.216105)"><path style="stroke:none" d=""/></g></g><g style="fill:#b89c52;fill-opacity:1;"><g transform="translate(513.436814, 51.216105)"><path style="stroke:none" d=""/></g></g><g style="fill:#b89c52;fill-opacity:1;"><g transform="translate(524.443625, 51.216105)"><path style="stroke:none" d=""/></g></g><g style="fill:#b89c52;fill-opacity:1;"><g transform="translate(535.450436, 51.216105)"><path style="stroke:none" d=""/></g></g><g style="fill:#b89c52;fill-opacity:1;"><g transform="translate(546.457248, 51.216105)"><path style="stroke:none" d=""/></g></g><g style="fill:#b89c52;fill-opacity:1;"><g transform="translate(557.464059, 51.216105)"><path style="stroke:none" d=""/></g></g><g clip-rule="nonzero" clip-path="url(#c854e29e6d)"><path style=" stroke:none;fill-rule:nonzero;fill:#4e3d42;fill-opacity:1;" d="M 530.28125 38.058594 C 530.96875 37.601562 531.769531 37.308594 532.636719 37.226562 L 550.910156 35.484375 L 532.636719 33.742188 C 531.769531 33.660156 530.96875 33.363281 530.28125 32.910156 L 537.15625 24.589844 L 528.835938 31.460938 C 528.378906 30.773438 528.085938 29.972656 528.003906 29.109375 L 526.261719 10.832031 L 524.519531 29.109375 C 524.4375 29.972656 524.140625 30.773438 523.6875 31.460938 L 515.367188 24.589844 L 522.238281 32.910156 C 521.550781 33.363281 520.75 33.660156 519.886719 33.742188 L 501.609375 35.484375 L 519.886719 37.226562 C 520.75 37.308594 521.550781 37.601562 522.238281 38.058594 L 515.367188 46.378906 L 523.6875 39.503906 C 524.140625 40.191406 524.4375 40.992188 524.519531 41.859375 L 526.261719 60.132812 L 528.003906 41.859375 C 528.085938 40.992188 528.378906 40.191406 528.835938 39.503906 L 537.15625 46.378906 L 530.28125 38.058594 "/><path style="fill:none;stroke-width:2.5;stroke-linecap:round;stroke-linejoin:round;stroke:#ba9f74;stroke-opacity:1;stroke-miterlimit:10;" d="M 2908.985085 2240.09729 C 2978.709981 2286.4485 3059.923639 2316.160814 3147.872088 2324.480262 L 5001.128145 2501.169488 L 3147.872088 2677.858714 C 3059.923639 2686.178162 2978.709981 2716.28664 2908.985085 2762.241686 L 3606.23405 3606.071399 L 2762.404337 2909.218598 C 2716.053127 2978.943495 2686.340813 3060.157153 2678.021365 3147.709438 L 2501.332139 5001.361658 L 2324.642912 3147.709438 C 2316.323464 3060.157153 2286.214986 2978.943495 2240.259941 2909.218598 L 1396.430227 3606.071399 L 2093.283028 2762.241686 C 2023.558132 2716.28664 1942.344474 2686.178162 1854.792189 2677.858714 L 1.139969 2501.169488 L 1854.792189 2324.480262 C 1942.344474 2316.160814 2023.558132 2286.4485 2093.283028 2240.09729 L 1396.430227 1396.267577 L 2240.259941 2093.516542 C 2286.214986 2023.791645 2316.323464 1942.577988 2324.642912 1854.629539 L 2501.332139 1.373482 L 2678.021365 1854.629539 C 2686.340813 1942.577988 2716.053127 2023.791645 2762.404337 2093.516542 L 3606.23405 1396.267577 Z M 2908.985085 2240.09729 " transform="matrix(0.00986018,0,0,-0.00986018,501.598135,60.146355)"/></g><g clip-rule="nonzero" clip-path="url(#c0adddb323)"><path style=" stroke:none;fill-rule:nonzero;fill:#b89c52;fill-opacity:1;" d="M 530.28125 38.785156 C 530.96875 38.328125 531.769531 38.035156 532.636719 37.949219 L 550.910156 36.210938 L 532.636719 34.46875 C 531.769531 34.386719 530.96875 34.089844 530.28125 33.636719 L 537.15625 25.316406 L 528.835938 32.1875 C 528.378906 31.5 528.085938 30.699219 528.003906 29.832031 L 526.261719 11.558594 L 524.519531 29.832031 C 524.4375 30.699219 524.140625 31.5 523.6875 32.1875 L 515.367188 25.316406 L 522.238281 33.636719 C 521.550781 34.089844 520.75 34.386719 519.886719 34.46875 L 501.609375 36.210938 L 519.886719 37.949219 C 520.75 38.035156 521.550781 38.328125 522.238281 38.785156 L 515.367188 47.105469 L 523.6875 40.230469 C 524.140625 40.917969 524.4375 41.71875 524.519531 42.585938 L 526.261719 60.859375 L 528.003906 42.585938 C 528.085938 41.71875 528.378906 40.917969 528.835938 40.230469 L 537.15625 47.105469 L 530.28125 38.785156 "/><path style="fill:none;stroke-width:2.5;stroke-linecap:round;stroke-linejoin:round;stroke:#ba9f74;stroke-opacity:1;stroke-miterlimit:10;" d="M 2908.985085 2240.042296 C 2978.709981 2286.393506 3059.923639 2316.10582 3147.872088 2324.821432 L 5001.128145 2501.114494 L 3147.872088 2677.80372 C 3059.923639 2686.123168 2978.709981 2716.231646 2908.985085 2762.186692 L 3606.23405 3606.016405 L 2762.404337 2909.163604 C 2716.053127 2978.888501 2686.340813 3060.102159 2678.021365 3148.050608 L 2501.332139 5001.306664 L 2324.642912 3148.050608 C 2316.323464 3060.102159 2286.214986 2978.888501 2240.259941 2909.163604 L 1396.430227 3606.016405 L 2093.283028 2762.186692 C 2023.558132 2716.231646 1942.344474 2686.123168 1854.792189 2677.80372 L 1.139969 2501.114494 L 1854.792189 2324.821432 C 1942.344474 2316.10582 2023.558132 2286.393506 2093.283028 2240.042296 L 1396.430227 1396.212583 L 2240.259941 2093.461548 C 2286.214986 2023.736651 2316.323464 1942.522994 2324.642912 1854.574544 L 2501.332139 1.318488 L 2678.021365 1854.574544 C 2686.340813 1942.522994 2716.053127 2023.736651 2762.404337 2093.461548 L 3606.23405 1396.212583 Z M 2908.985085 2240.042296 " transform="matrix(0.00986018,0,0,-0.00986018,501.598135,60.872376)"/></g></g></svg>