<svg xmlns="http://www.w3.org/2000/svg" xmlns:xlink="http://www.w3.org/1999/xlink" width="84" zoomAndPan="magnify" viewBox="0 0 63 62.999997" height="84" preserveAspectRatio="xMidYMid meet" version="1.2"><defs><clipPath id="0c78645ace"><path d="M 25.109375 10.199219 L 37.859375 10.199219 L 37.859375 22.949219 L 25.109375 22.949219 Z M 25.109375 10.199219 "/></clipPath><clipPath id="752e89dfdf"><path d="M 25.410156 10.199219 L 38 10.199219 L 38 22.949219 L 25.410156 22.949219 Z M 25.410156 10.199219 "/></clipPath></defs><g id="1947a61a09"><g clip-rule="nonzero" clip-path="url(#0c78645ace)"><path style=" stroke:none;fill-rule:nonzero;fill:#4e3d42;fill-opacity:1;" d="M 32.367188 17.089844 C 32.539062 16.976562 32.742188 16.902344 32.960938 16.878906 L 37.585938 16.441406 L 32.960938 16 C 32.742188 15.976562 32.539062 15.902344 32.367188 15.789062 L 34.105469 13.683594 L 32 15.421875 C 31.882812 15.25 31.808594 15.046875 31.789062 14.828125 L 31.347656 10.203125 L 30.90625 14.828125 C 30.886719 15.046875 30.8125 15.25 30.695312 15.421875 L 28.589844 13.683594 L 30.332031 15.789062 C 30.15625 15.902344 29.953125 15.976562 29.734375 16 L 25.109375 16.441406 L 29.734375 16.878906 C 29.953125 16.902344 30.15625 16.976562 30.332031 17.089844 L 28.589844 19.195312 L 30.695312 17.457031 C 30.8125 17.632812 30.886719 17.832031 30.90625 18.050781 L 31.347656 22.675781 L 31.789062 18.050781 C 31.808594 17.832031 31.882812 17.632812 32 17.457031 L 34.105469 19.195312 L 32.367188 17.089844 "/><path style="fill:none;stroke-width:2.5;stroke-linecap:round;stroke-linejoin:round;stroke:#ba9f74;stroke-opacity:1;stroke-miterlimit:10;" d="M 2909.919629 2240.592641 C 2978.81854 2286.003287 3060.244525 2315.755089 3147.934048 2325.150395 L 5001.941105 2500.529441 L 3147.934048 2677.474371 C 3060.244525 2686.869677 2978.81854 2716.62148 2909.919629 2762.032126 L 3606.73816 3606.043784 L 2762.726501 2909.225253 C 2715.749971 2978.124164 2685.998168 3059.55015 2678.168747 3147.239673 L 2501.223816 5001.24673 L 2324.278886 3147.239673 C 2316.449465 3059.55015 2286.697662 2978.124164 2239.721132 2909.225253 L 1395.709473 3606.043784 L 2094.093888 2762.032126 C 2023.629093 2716.62148 1942.203108 2686.869677 1854.513585 2677.474371 L 0.506527 2500.529441 L 1854.513585 2325.150395 C 1942.203108 2315.755089 2023.629093 2286.003287 2094.093888 2240.592641 L 1395.709473 1396.580982 L 2239.721132 2093.399513 C 2286.697662 2022.934718 2316.449465 1943.074616 2324.278886 1855.385093 L 2501.223816 1.378036 L 2678.168747 1855.385093 C 2685.998168 1943.074616 2715.749971 2022.934718 2762.726501 2093.399513 L 3606.73816 1396.580982 Z M 2909.919629 2240.592641 " transform="matrix(0.0024946,0,0,-0.0024946,25.108111,22.679219)"/></g><g style="fill:#4e3d42;fill-opacity:1;"><g transform="translate(8.529927, 34.362869)"><path style="stroke:none" d="M 6.984375 -1.28125 C 7.054688 -1.007812 7.125 -0.785156 7.1875 -0.609375 C 7.257812 -0.429688 7.359375 -0.226562 7.484375 0 L 5.984375 0 C 5.972656 -0.269531 5.941406 -0.488281 5.890625 -0.65625 C 5.847656 -0.820312 5.796875 -1.03125 5.734375 -1.28125 L 5.09375 -3.5 L 1.875 -3.5 L 1.234375 -1.234375 C 1.160156 -1.003906 1.097656 -0.804688 1.046875 -0.640625 C 1.003906 -0.472656 0.972656 -0.257812 0.953125 0 L 0.609375 0 C 0.742188 -0.257812 0.832031 -0.46875 0.875 -0.625 C 0.914062 -0.789062 0.96875 -0.988281 1.03125 -1.21875 L 3.234375 -8.96875 C 3.265625 -9.101562 3.273438 -9.210938 3.265625 -9.296875 C 3.265625 -9.390625 3.25 -9.5 3.21875 -9.625 L 4.625 -9.625 Z M 1.921875 -3.6875 L 5.046875 -3.6875 L 3.484375 -9.21875 Z M 1.921875 -3.6875 "/></g></g><g style="fill:#4e3d42;fill-opacity:1;"><g transform="translate(15.943453, 34.362869)"><path style="stroke:none" d="M 7.75 -9.625 L 7.21875 -8.953125 C 6.707031 -9.160156 6.226562 -9.289062 5.78125 -9.34375 C 5.34375 -9.40625 4.992188 -9.4375 4.734375 -9.4375 L 4.578125 -9.4375 L 4.578125 -2.375 C 4.578125 -2.082031 4.582031 -1.816406 4.59375 -1.578125 C 4.601562 -1.347656 4.613281 -1.109375 4.625 -0.859375 C 4.632812 -0.617188 4.65625 -0.332031 4.6875 0 L 3.3125 0 C 3.332031 -0.332031 3.347656 -0.617188 3.359375 -0.859375 C 3.367188 -1.109375 3.378906 -1.347656 3.390625 -1.578125 C 3.398438 -1.816406 3.40625 -2.082031 3.40625 -2.375 L 3.40625 -9.4375 L 3.265625 -9.4375 C 2.992188 -9.4375 2.640625 -9.40625 2.203125 -9.34375 C 1.765625 -9.289062 1.285156 -9.160156 0.765625 -8.953125 L 0.234375 -9.625 Z M 7.75 -9.625 "/></g></g><g style="fill:#4e3d42;fill-opacity:1;"><g transform="translate(23.2607, 34.362869)"><path style="stroke:none" d="M 0.84375 -9.625 L 6.515625 -9.625 L 5.984375 -8.953125 C 5.640625 -9.085938 5.289062 -9.1875 4.9375 -9.25 C 4.582031 -9.320312 4.253906 -9.367188 3.953125 -9.390625 C 3.660156 -9.421875 3.421875 -9.4375 3.234375 -9.4375 L 2.140625 -9.4375 L 2.140625 -5.203125 L 2.90625 -5.203125 C 3.226562 -5.203125 3.566406 -5.207031 3.921875 -5.21875 C 4.285156 -5.226562 4.75 -5.257812 5.3125 -5.3125 L 5.3125 -4.890625 C 4.75 -4.953125 4.285156 -4.984375 3.921875 -4.984375 C 3.566406 -4.992188 3.226562 -5 2.90625 -5 L 2.140625 -5 L 2.140625 -0.1875 L 3.484375 -0.1875 C 3.890625 -0.1875 4.257812 -0.195312 4.59375 -0.21875 C 4.925781 -0.238281 5.269531 -0.28125 5.625 -0.34375 C 5.988281 -0.414062 6.394531 -0.519531 6.84375 -0.65625 L 6.5 0 L 0.84375 0 C 0.875 -0.332031 0.894531 -0.617188 0.90625 -0.859375 C 0.925781 -1.109375 0.9375 -1.347656 0.9375 -1.578125 C 0.945312 -1.816406 0.953125 -2.082031 0.953125 -2.375 L 0.953125 -7.25 C 0.953125 -7.550781 0.945312 -7.816406 0.9375 -8.046875 C 0.9375 -8.273438 0.925781 -8.507812 0.90625 -8.75 C 0.894531 -9 0.875 -9.289062 0.84375 -9.625 Z M 0.84375 -9.625 "/></g></g><g style="fill:#4e3d42;fill-opacity:1;"><g transform="translate(29.795655, 34.362869)"><path style="stroke:none" d="M 0.859375 -9.625 L 2.234375 -9.625 C 2.210938 -9.289062 2.191406 -9 2.171875 -8.75 C 2.160156 -8.507812 2.148438 -8.273438 2.140625 -8.046875 C 2.140625 -7.816406 2.140625 -7.550781 2.140625 -7.25 L 2.140625 -0.1875 L 3.15625 -0.1875 C 3.550781 -0.1875 3.914062 -0.195312 4.25 -0.21875 C 4.59375 -0.238281 4.941406 -0.28125 5.296875 -0.34375 C 5.648438 -0.414062 6.054688 -0.519531 6.515625 -0.65625 L 6.15625 0 L 0.84375 0 C 0.875 -0.332031 0.894531 -0.617188 0.90625 -0.859375 C 0.925781 -1.109375 0.941406 -1.347656 0.953125 -1.578125 C 0.960938 -1.816406 0.96875 -2.082031 0.96875 -2.375 L 0.96875 -7.25 C 0.96875 -7.550781 0.960938 -7.816406 0.953125 -8.046875 C 0.953125 -8.273438 0.941406 -8.507812 0.921875 -8.75 C 0.910156 -9 0.890625 -9.289062 0.859375 -9.625 Z M 0.859375 -9.625 "/></g></g><g style="fill:#4e3d42;fill-opacity:1;"><g transform="translate(36.113977, 34.362869)"><path style="stroke:none" d="M 0.84375 -9.625 L 2.21875 -9.625 C 2.1875 -9.289062 2.160156 -9 2.140625 -8.75 C 2.128906 -8.507812 2.125 -8.273438 2.125 -8.046875 C 2.125 -7.816406 2.125 -7.550781 2.125 -7.25 L 2.125 -2.375 C 2.125 -2.082031 2.125 -1.816406 2.125 -1.578125 C 2.125 -1.347656 2.128906 -1.109375 2.140625 -0.859375 C 2.160156 -0.617188 2.1875 -0.332031 2.21875 0 L 0.84375 0 C 0.863281 -0.332031 0.878906 -0.617188 0.890625 -0.859375 C 0.910156 -1.109375 0.921875 -1.347656 0.921875 -1.578125 C 0.929688 -1.816406 0.9375 -2.082031 0.9375 -2.375 L 0.9375 -7.25 C 0.9375 -7.550781 0.929688 -7.816406 0.921875 -8.046875 C 0.921875 -8.273438 0.910156 -8.507812 0.890625 -8.75 C 0.878906 -9 0.863281 -9.289062 0.84375 -9.625 Z M 0.84375 -9.625 "/></g></g><g style="fill:#4e3d42;fill-opacity:1;"><g transform="translate(38.496779, 34.362869)"><path style="stroke:none" d="M 0.84375 -9.625 L 6.515625 -9.625 L 5.984375 -8.953125 C 5.640625 -9.085938 5.289062 -9.1875 4.9375 -9.25 C 4.582031 -9.320312 4.253906 -9.367188 3.953125 -9.390625 C 3.660156 -9.421875 3.421875 -9.4375 3.234375 -9.4375 L 2.140625 -9.4375 L 2.140625 -5.203125 L 2.90625 -5.203125 C 3.226562 -5.203125 3.566406 -5.207031 3.921875 -5.21875 C 4.285156 -5.226562 4.75 -5.257812 5.3125 -5.3125 L 5.3125 -4.890625 C 4.75 -4.953125 4.285156 -4.984375 3.921875 -4.984375 C 3.566406 -4.992188 3.226562 -5 2.90625 -5 L 2.140625 -5 L 2.140625 -0.1875 L 3.484375 -0.1875 C 3.890625 -0.1875 4.257812 -0.195312 4.59375 -0.21875 C 4.925781 -0.238281 5.269531 -0.28125 5.625 -0.34375 C 5.988281 -0.414062 6.394531 -0.519531 6.84375 -0.65625 L 6.5 0 L 0.84375 0 C 0.875 -0.332031 0.894531 -0.617188 0.90625 -0.859375 C 0.925781 -1.109375 0.9375 -1.347656 0.9375 -1.578125 C 0.945312 -1.816406 0.953125 -2.082031 0.953125 -2.375 L 0.953125 -7.25 C 0.953125 -7.550781 0.945312 -7.816406 0.9375 -8.046875 C 0.9375 -8.273438 0.925781 -8.507812 0.90625 -8.75 C 0.894531 -9 0.875 -9.289062 0.84375 -9.625 Z M 0.84375 -9.625 "/></g></g><g style="fill:#4e3d42;fill-opacity:1;"><g transform="translate(45.031735, 34.362869)"><path style="stroke:none" d="M 6.40625 -2.28125 C 6.613281 -1.75 6.820312 -1.328125 7.03125 -1.015625 C 7.238281 -0.710938 7.472656 -0.5 7.734375 -0.375 C 8.003906 -0.25 8.320312 -0.1875 8.6875 -0.1875 L 8.6875 0 C 8.03125 0 7.476562 -0.0625 7.03125 -0.1875 C 6.582031 -0.320312 6.21875 -0.550781 5.9375 -0.875 C 5.65625 -1.195312 5.410156 -1.640625 5.203125 -2.203125 C 4.984375 -2.835938 4.742188 -3.3125 4.484375 -3.625 C 4.234375 -3.945312 3.953125 -4.164062 3.640625 -4.28125 C 3.328125 -4.394531 2.960938 -4.453125 2.546875 -4.453125 L 2.125 -4.453125 L 2.125 -2.375 C 2.125 -2.082031 2.125 -1.816406 2.125 -1.578125 C 2.125 -1.347656 2.128906 -1.109375 2.140625 -0.859375 C 2.160156 -0.617188 2.1875 -0.332031 2.21875 0 L 0.84375 0 C 0.863281 -0.332031 0.878906 -0.617188 0.890625 -0.859375 C 0.910156 -1.109375 0.921875 -1.347656 0.921875 -1.578125 C 0.929688 -1.816406 0.9375 -2.082031 0.9375 -2.375 L 0.9375 -7.25 C 0.9375 -7.550781 0.929688 -7.816406 0.921875 -8.046875 C 0.921875 -8.273438 0.910156 -8.507812 0.890625 -8.75 C 0.878906 -9 0.863281 -9.289062 0.84375 -9.625 L 3.0625 -9.625 C 3.601562 -9.625 4.113281 -9.582031 4.59375 -9.5 C 5.070312 -9.425781 5.5 -9.296875 5.875 -9.109375 C 6.25 -8.921875 6.539062 -8.660156 6.75 -8.328125 C 6.96875 -7.992188 7.078125 -7.5625 7.078125 -7.03125 C 7.078125 -6.425781 6.9375 -5.941406 6.65625 -5.578125 C 6.375 -5.222656 5.992188 -4.960938 5.515625 -4.796875 C 5.035156 -4.628906 4.5 -4.519531 3.90625 -4.46875 C 4.425781 -4.375 4.898438 -4.164062 5.328125 -3.84375 C 5.765625 -3.53125 6.125 -3.007812 6.40625 -2.28125 Z M 2.125 -4.640625 L 3.0625 -4.640625 C 3.40625 -4.640625 3.742188 -4.675781 4.078125 -4.75 C 4.410156 -4.820312 4.707031 -4.945312 4.96875 -5.125 C 5.238281 -5.300781 5.453125 -5.539062 5.609375 -5.84375 C 5.765625 -6.15625 5.84375 -6.550781 5.84375 -7.03125 C 5.84375 -7.519531 5.765625 -7.914062 5.609375 -8.21875 C 5.453125 -8.53125 5.238281 -8.773438 4.96875 -8.953125 C 4.707031 -9.128906 4.410156 -9.253906 4.078125 -9.328125 C 3.742188 -9.398438 3.40625 -9.4375 3.0625 -9.4375 L 2.125 -9.4375 Z M 2.125 -4.640625 "/></g></g><g style="fill:#4e3d42;fill-opacity:1;"><g transform="translate(3.799138, 46.128085)"><path style="stroke:none" d="M 0.484375 -2.875 L 1.4375 -3.34375 C 1.519531 -2.675781 1.695312 -2.085938 1.96875 -1.578125 C 2.25 -1.066406 2.601562 -0.664062 3.03125 -0.375 C 3.457031 -0.09375 3.9375 0.046875 4.46875 0.046875 C 5.019531 0.046875 5.476562 -0.101562 5.84375 -0.40625 C 6.21875 -0.707031 6.40625 -1.160156 6.40625 -1.765625 C 6.40625 -2.117188 6.289062 -2.445312 6.0625 -2.75 C 5.832031 -3.0625 5.5 -3.382812 5.0625 -3.71875 C 4.632812 -4.050781 4.125 -4.445312 3.53125 -4.90625 C 2.957031 -5.332031 2.488281 -5.695312 2.125 -6 C 1.769531 -6.300781 1.503906 -6.597656 1.328125 -6.890625 C 1.160156 -7.191406 1.078125 -7.535156 1.078125 -7.921875 C 1.078125 -8.546875 1.300781 -9.023438 1.75 -9.359375 C 2.207031 -9.691406 2.785156 -9.859375 3.484375 -9.859375 C 4.203125 -9.859375 4.828125 -9.675781 5.359375 -9.3125 C 5.890625 -8.945312 6.363281 -8.390625 6.78125 -7.640625 L 5.828125 -7.28125 C 5.753906 -7.675781 5.625 -8.054688 5.4375 -8.421875 C 5.257812 -8.785156 5.007812 -9.082031 4.6875 -9.3125 C 4.363281 -9.550781 3.941406 -9.671875 3.421875 -9.671875 C 2.910156 -9.671875 2.507812 -9.550781 2.21875 -9.3125 C 1.925781 -9.070312 1.78125 -8.75 1.78125 -8.34375 C 1.78125 -8.03125 1.859375 -7.757812 2.015625 -7.53125 C 2.171875 -7.300781 2.410156 -7.0625 2.734375 -6.8125 C 3.054688 -6.5625 3.46875 -6.253906 3.96875 -5.890625 C 4.65625 -5.390625 5.226562 -4.945312 5.6875 -4.5625 C 6.144531 -4.1875 6.492188 -3.816406 6.734375 -3.453125 C 6.972656 -3.085938 7.09375 -2.65625 7.09375 -2.15625 C 7.09375 -1.613281 6.96875 -1.164062 6.71875 -0.8125 C 6.476562 -0.457031 6.148438 -0.191406 5.734375 -0.015625 C 5.328125 0.148438 4.878906 0.234375 4.390625 0.234375 C 3.828125 0.234375 3.296875 0.140625 2.796875 -0.046875 C 2.304688 -0.242188 1.863281 -0.570312 1.46875 -1.03125 C 1.082031 -1.488281 0.753906 -2.101562 0.484375 -2.875 Z M 0.484375 -2.875 "/></g></g><g style="fill:#4e3d42;fill-opacity:1;"><g transform="translate(10.69515, 46.128085)"><path style="stroke:none" d="M 6.984375 -1.28125 C 7.054688 -1.007812 7.125 -0.785156 7.1875 -0.609375 C 7.257812 -0.429688 7.359375 -0.226562 7.484375 0 L 5.984375 0 C 5.972656 -0.269531 5.941406 -0.488281 5.890625 -0.65625 C 5.847656 -0.820312 5.796875 -1.03125 5.734375 -1.28125 L 5.09375 -3.5 L 1.875 -3.5 L 1.234375 -1.234375 C 1.160156 -1.003906 1.097656 -0.804688 1.046875 -0.640625 C 1.003906 -0.472656 0.972656 -0.257812 0.953125 0 L 0.609375 0 C 0.742188 -0.257812 0.832031 -0.46875 0.875 -0.625 C 0.914062 -0.789062 0.96875 -0.988281 1.03125 -1.21875 L 3.234375 -8.96875 C 3.265625 -9.101562 3.273438 -9.210938 3.265625 -9.296875 C 3.265625 -9.390625 3.25 -9.5 3.21875 -9.625 L 4.625 -9.625 Z M 1.921875 -3.6875 L 5.046875 -3.6875 L 3.484375 -9.21875 Z M 1.921875 -3.6875 "/></g></g><g style="fill:#4e3d42;fill-opacity:1;"><g transform="translate(18.108677, 46.128085)"><path style="stroke:none" d="M 6.40625 -2.28125 C 6.613281 -1.75 6.820312 -1.328125 7.03125 -1.015625 C 7.238281 -0.710938 7.472656 -0.5 7.734375 -0.375 C 8.003906 -0.25 8.320312 -0.1875 8.6875 -0.1875 L 8.6875 0 C 8.03125 0 7.476562 -0.0625 7.03125 -0.1875 C 6.582031 -0.320312 6.21875 -0.550781 5.9375 -0.875 C 5.65625 -1.195312 5.410156 -1.640625 5.203125 -2.203125 C 4.984375 -2.835938 4.742188 -3.3125 4.484375 -3.625 C 4.234375 -3.945312 3.953125 -4.164062 3.640625 -4.28125 C 3.328125 -4.394531 2.960938 -4.453125 2.546875 -4.453125 L 2.125 -4.453125 L 2.125 -2.375 C 2.125 -2.082031 2.125 -1.816406 2.125 -1.578125 C 2.125 -1.347656 2.128906 -1.109375 2.140625 -0.859375 C 2.160156 -0.617188 2.1875 -0.332031 2.21875 0 L 0.84375 0 C 0.863281 -0.332031 0.878906 -0.617188 0.890625 -0.859375 C 0.910156 -1.109375 0.921875 -1.347656 0.921875 -1.578125 C 0.929688 -1.816406 0.9375 -2.082031 0.9375 -2.375 L 0.9375 -7.25 C 0.9375 -7.550781 0.929688 -7.816406 0.921875 -8.046875 C 0.921875 -8.273438 0.910156 -8.507812 0.890625 -8.75 C 0.878906 -9 0.863281 -9.289062 0.84375 -9.625 L 3.0625 -9.625 C 3.601562 -9.625 4.113281 -9.582031 4.59375 -9.5 C 5.070312 -9.425781 5.5 -9.296875 5.875 -9.109375 C 6.25 -8.921875 6.539062 -8.660156 6.75 -8.328125 C 6.96875 -7.992188 7.078125 -7.5625 7.078125 -7.03125 C 7.078125 -6.425781 6.9375 -5.941406 6.65625 -5.578125 C 6.375 -5.222656 5.992188 -4.960938 5.515625 -4.796875 C 5.035156 -4.628906 4.5 -4.519531 3.90625 -4.46875 C 4.425781 -4.375 4.898438 -4.164062 5.328125 -3.84375 C 5.765625 -3.53125 6.125 -3.007812 6.40625 -2.28125 Z M 2.125 -4.640625 L 3.0625 -4.640625 C 3.40625 -4.640625 3.742188 -4.675781 4.078125 -4.75 C 4.410156 -4.820312 4.707031 -4.945312 4.96875 -5.125 C 5.238281 -5.300781 5.453125 -5.539062 5.609375 -5.84375 C 5.765625 -6.15625 5.84375 -6.550781 5.84375 -7.03125 C 5.84375 -7.519531 5.765625 -7.914062 5.609375 -8.21875 C 5.453125 -8.53125 5.238281 -8.773438 4.96875 -8.953125 C 4.707031 -9.128906 4.410156 -9.253906 4.078125 -9.328125 C 3.742188 -9.398438 3.40625 -9.4375 3.0625 -9.4375 L 2.125 -9.4375 Z M 2.125 -4.640625 "/></g></g><g style="fill:#4e3d42;fill-opacity:1;"><g transform="translate(26.569269, 46.128085)"><path style="stroke:none" d="M 7.359375 -1.28125 C 7.566406 -1.03125 7.757812 -0.8125 7.9375 -0.625 C 8.113281 -0.4375 8.34375 -0.226562 8.625 0 L 6.78125 0 C 6.65625 -0.226562 6.523438 -0.425781 6.390625 -0.59375 C 6.265625 -0.769531 6.085938 -0.992188 5.859375 -1.265625 L 2.890625 -4.890625 L 2.125 -4.0625 L 2.125 -2.375 C 2.125 -2.082031 2.125 -1.816406 2.125 -1.578125 C 2.125 -1.347656 2.128906 -1.109375 2.140625 -0.859375 C 2.160156 -0.617188 2.1875 -0.332031 2.21875 0 L 0.84375 0 C 0.863281 -0.332031 0.878906 -0.617188 0.890625 -0.859375 C 0.910156 -1.109375 0.921875 -1.347656 0.921875 -1.578125 C 0.929688 -1.816406 0.9375 -2.082031 0.9375 -2.375 L 0.9375 -7.25 C 0.9375 -7.550781 0.929688 -7.816406 0.921875 -8.046875 C 0.921875 -8.273438 0.910156 -8.507812 0.890625 -8.75 C 0.878906 -9 0.863281 -9.289062 0.84375 -9.625 L 2.21875 -9.625 C 2.1875 -9.289062 2.160156 -9 2.140625 -8.75 C 2.128906 -8.507812 2.125 -8.273438 2.125 -8.046875 C 2.125 -7.816406 2.125 -7.550781 2.125 -7.25 L 2.125 -4.34375 L 5.90625 -8.4375 C 6.101562 -8.65625 6.273438 -8.847656 6.421875 -9.015625 C 6.578125 -9.191406 6.726562 -9.394531 6.875 -9.625 L 7.375 -9.625 C 7.101562 -9.394531 6.878906 -9.191406 6.703125 -9.015625 C 6.523438 -8.847656 6.34375 -8.660156 6.15625 -8.453125 L 3.703125 -5.796875 Z M 7.359375 -1.28125 "/></g></g><g style="fill:#4e3d42;fill-opacity:1;"><g transform="translate(34.885437, 46.128085)"><path style="stroke:none" d="M 6.984375 -1.28125 C 7.054688 -1.007812 7.125 -0.785156 7.1875 -0.609375 C 7.257812 -0.429688 7.359375 -0.226562 7.484375 0 L 5.984375 0 C 5.972656 -0.269531 5.941406 -0.488281 5.890625 -0.65625 C 5.847656 -0.820312 5.796875 -1.03125 5.734375 -1.28125 L 5.09375 -3.5 L 1.875 -3.5 L 1.234375 -1.234375 C 1.160156 -1.003906 1.097656 -0.804688 1.046875 -0.640625 C 1.003906 -0.472656 0.972656 -0.257812 0.953125 0 L 0.609375 0 C 0.742188 -0.257812 0.832031 -0.46875 0.875 -0.625 C 0.914062 -0.789062 0.96875 -0.988281 1.03125 -1.21875 L 3.234375 -8.96875 C 3.265625 -9.101562 3.273438 -9.210938 3.265625 -9.296875 C 3.265625 -9.390625 3.25 -9.5 3.21875 -9.625 L 4.625 -9.625 Z M 1.921875 -3.6875 L 5.046875 -3.6875 L 3.484375 -9.21875 Z M 1.921875 -3.6875 "/></g></g><g style="fill:#4e3d42;fill-opacity:1;"><g transform="translate(42.298964, 46.128085)"><path style="stroke:none" d="M 8.015625 -7.25 L 8.015625 -2.375 C 8.015625 -2.082031 8.015625 -1.816406 8.015625 -1.578125 C 8.023438 -1.347656 8.035156 -1.109375 8.046875 -0.859375 C 8.066406 -0.617188 8.085938 -0.332031 8.109375 0 L 6.75 0 L 1.109375 -9.15625 L 1.109375 -2.375 C 1.109375 -2.082031 1.109375 -1.816406 1.109375 -1.578125 C 1.117188 -1.347656 1.128906 -1.109375 1.140625 -0.859375 C 1.160156 -0.617188 1.179688 -0.332031 1.203125 0 L 0.84375 0 C 0.863281 -0.332031 0.878906 -0.617188 0.890625 -0.859375 C 0.910156 -1.109375 0.921875 -1.347656 0.921875 -1.578125 C 0.929688 -1.816406 0.9375 -2.082031 0.9375 -2.375 L 0.9375 -7.25 C 0.9375 -7.550781 0.929688 -7.816406 0.921875 -8.046875 C 0.921875 -8.273438 0.910156 -8.507812 0.890625 -8.75 C 0.878906 -9 0.863281 -9.289062 0.84375 -9.625 L 2.203125 -9.625 L 7.84375 -0.46875 L 7.84375 -7.25 C 7.84375 -7.550781 7.835938 -7.816406 7.828125 -8.046875 C 7.828125 -8.273438 7.820312 -8.507812 7.8125 -8.75 C 7.800781 -9 7.78125 -9.289062 7.75 -9.625 L 8.109375 -9.625 C 8.085938 -9.289062 8.066406 -9 8.046875 -8.75 C 8.035156 -8.507812 8.023438 -8.273438 8.015625 -8.046875 C 8.015625 -7.816406 8.015625 -7.550781 8.015625 -7.25 Z M 8.015625 -7.25 "/></g></g><g style="fill:#4e3d42;fill-opacity:1;"><g transform="translate(50.579028, 46.128085)"><path style="stroke:none" d="M 7.0625 -8.5 L 4.84375 -4.15625 L 4.84375 -2.375 C 4.84375 -2.082031 4.84375 -1.816406 4.84375 -1.578125 C 4.84375 -1.347656 4.847656 -1.109375 4.859375 -0.859375 C 4.878906 -0.617188 4.898438 -0.332031 4.921875 0 L 3.546875 0 C 3.578125 -0.332031 3.597656 -0.617188 3.609375 -0.859375 C 3.628906 -1.109375 3.640625 -1.347656 3.640625 -1.578125 C 3.640625 -1.816406 3.640625 -2.082031 3.640625 -2.375 L 3.640625 -4.15625 L 1.34375 -8.5 C 1.226562 -8.726562 1.117188 -8.914062 1.015625 -9.0625 C 0.910156 -9.21875 0.773438 -9.40625 0.609375 -9.625 L 2.171875 -9.625 C 2.253906 -9.394531 2.332031 -9.203125 2.40625 -9.046875 C 2.476562 -8.898438 2.570312 -8.71875 2.6875 -8.5 L 4.796875 -4.53125 L 6.859375 -8.5 C 6.972656 -8.726562 7.066406 -8.914062 7.140625 -9.0625 C 7.210938 -9.207031 7.296875 -9.394531 7.390625 -9.625 L 7.71875 -9.625 C 7.5625 -9.394531 7.441406 -9.203125 7.359375 -9.046875 C 7.273438 -8.898438 7.175781 -8.71875 7.0625 -8.5 Z M 7.0625 -8.5 "/></g></g><g style="fill:#b89c52;fill-opacity:1;"><g transform="translate(8.831648, 34.362869)"><path style="stroke:none" d="M 6.984375 -1.28125 C 7.054688 -1.007812 7.125 -0.785156 7.1875 -0.609375 C 7.257812 -0.429688 7.359375 -0.226562 7.484375 0 L 5.984375 0 C 5.972656 -0.269531 5.941406 -0.488281 5.890625 -0.65625 C 5.847656 -0.820312 5.796875 -1.03125 5.734375 -1.28125 L 5.09375 -3.5 L 1.875 -3.5 L 1.234375 -1.234375 C 1.160156 -1.003906 1.097656 -0.804688 1.046875 -0.640625 C 1.003906 -0.472656 0.972656 -0.257812 0.953125 0 L 0.609375 0 C 0.742188 -0.257812 0.832031 -0.46875 0.875 -0.625 C 0.914062 -0.789062 0.96875 -0.988281 1.03125 -1.21875 L 3.234375 -8.96875 C 3.265625 -9.101562 3.273438 -9.210938 3.265625 -9.296875 C 3.265625 -9.390625 3.25 -9.5 3.21875 -9.625 L 4.625 -9.625 Z M 1.921875 -3.6875 L 5.046875 -3.6875 L 3.484375 -9.21875 Z M 1.921875 -3.6875 "/></g></g><g style="fill:#b89c52;fill-opacity:1;"><g transform="translate(16.245175, 34.362869)"><path style="stroke:none" d="M 7.75 -9.625 L 7.21875 -8.953125 C 6.707031 -9.160156 6.226562 -9.289062 5.78125 -9.34375 C 5.34375 -9.40625 4.992188 -9.4375 4.734375 -9.4375 L 4.578125 -9.4375 L 4.578125 -2.375 C 4.578125 -2.082031 4.582031 -1.816406 4.59375 -1.578125 C 4.601562 -1.347656 4.613281 -1.109375 4.625 -0.859375 C 4.632812 -0.617188 4.65625 -0.332031 4.6875 0 L 3.3125 0 C 3.332031 -0.332031 3.347656 -0.617188 3.359375 -0.859375 C 3.367188 -1.109375 3.378906 -1.347656 3.390625 -1.578125 C 3.398438 -1.816406 3.40625 -2.082031 3.40625 -2.375 L 3.40625 -9.4375 L 3.265625 -9.4375 C 2.992188 -9.4375 2.640625 -9.40625 2.203125 -9.34375 C 1.765625 -9.289062 1.285156 -9.160156 0.765625 -8.953125 L 0.234375 -9.625 Z M 7.75 -9.625 "/></g></g><g style="fill:#b89c52;fill-opacity:1;"><g transform="translate(23.562421, 34.362869)"><path style="stroke:none" d="M 0.84375 -9.625 L 6.515625 -9.625 L 5.984375 -8.953125 C 5.640625 -9.085938 5.289062 -9.1875 4.9375 -9.25 C 4.582031 -9.320312 4.253906 -9.367188 3.953125 -9.390625 C 3.660156 -9.421875 3.421875 -9.4375 3.234375 -9.4375 L 2.140625 -9.4375 L 2.140625 -5.203125 L 2.90625 -5.203125 C 3.226562 -5.203125 3.566406 -5.207031 3.921875 -5.21875 C 4.285156 -5.226562 4.75 -5.257812 5.3125 -5.3125 L 5.3125 -4.890625 C 4.75 -4.953125 4.285156 -4.984375 3.921875 -4.984375 C 3.566406 -4.992188 3.226562 -5 2.90625 -5 L 2.140625 -5 L 2.140625 -0.1875 L 3.484375 -0.1875 C 3.890625 -0.1875 4.257812 -0.195312 4.59375 -0.21875 C 4.925781 -0.238281 5.269531 -0.28125 5.625 -0.34375 C 5.988281 -0.414062 6.394531 -0.519531 6.84375 -0.65625 L 6.5 0 L 0.84375 0 C 0.875 -0.332031 0.894531 -0.617188 0.90625 -0.859375 C 0.925781 -1.109375 0.9375 -1.347656 0.9375 -1.578125 C 0.945312 -1.816406 0.953125 -2.082031 0.953125 -2.375 L 0.953125 -7.25 C 0.953125 -7.550781 0.945312 -7.816406 0.9375 -8.046875 C 0.9375 -8.273438 0.925781 -8.507812 0.90625 -8.75 C 0.894531 -9 0.875 -9.289062 0.84375 -9.625 Z M 0.84375 -9.625 "/></g></g><g style="fill:#b89c52;fill-opacity:1;"><g transform="translate(30.097377, 34.362869)"><path style="stroke:none" d="M 0.859375 -9.625 L 2.234375 -9.625 C 2.210938 -9.289062 2.191406 -9 2.171875 -8.75 C 2.160156 -8.507812 2.148438 -8.273438 2.140625 -8.046875 C 2.140625 -7.816406 2.140625 -7.550781 2.140625 -7.25 L 2.140625 -0.1875 L 3.15625 -0.1875 C 3.550781 -0.1875 3.914062 -0.195312 4.25 -0.21875 C 4.59375 -0.238281 4.941406 -0.28125 5.296875 -0.34375 C 5.648438 -0.414062 6.054688 -0.519531 6.515625 -0.65625 L 6.15625 0 L 0.84375 0 C 0.875 -0.332031 0.894531 -0.617188 0.90625 -0.859375 C 0.925781 -1.109375 0.941406 -1.347656 0.953125 -1.578125 C 0.960938 -1.816406 0.96875 -2.082031 0.96875 -2.375 L 0.96875 -7.25 C 0.96875 -7.550781 0.960938 -7.816406 0.953125 -8.046875 C 0.953125 -8.273438 0.941406 -8.507812 0.921875 -8.75 C 0.910156 -9 0.890625 -9.289062 0.859375 -9.625 Z M 0.859375 -9.625 "/></g></g><g style="fill:#b89c52;fill-opacity:1;"><g transform="translate(36.415698, 34.362869)"><path style="stroke:none" d="M 0.84375 -9.625 L 2.21875 -9.625 C 2.1875 -9.289062 2.160156 -9 2.140625 -8.75 C 2.128906 -8.507812 2.125 -8.273438 2.125 -8.046875 C 2.125 -7.816406 2.125 -7.550781 2.125 -7.25 L 2.125 -2.375 C 2.125 -2.082031 2.125 -1.816406 2.125 -1.578125 C 2.125 -1.347656 2.128906 -1.109375 2.140625 -0.859375 C 2.160156 -0.617188 2.1875 -0.332031 2.21875 0 L 0.84375 0 C 0.863281 -0.332031 0.878906 -0.617188 0.890625 -0.859375 C 0.910156 -1.109375 0.921875 -1.347656 0.921875 -1.578125 C 0.929688 -1.816406 0.9375 -2.082031 0.9375 -2.375 L 0.9375 -7.25 C 0.9375 -7.550781 0.929688 -7.816406 0.921875 -8.046875 C 0.921875 -8.273438 0.910156 -8.507812 0.890625 -8.75 C 0.878906 -9 0.863281 -9.289062 0.84375 -9.625 Z M 0.84375 -9.625 "/></g></g><g style="fill:#b89c52;fill-opacity:1;"><g transform="translate(38.798501, 34.362869)"><path style="stroke:none" d="M 0.84375 -9.625 L 6.515625 -9.625 L 5.984375 -8.953125 C 5.640625 -9.085938 5.289062 -9.1875 4.9375 -9.25 C 4.582031 -9.320312 4.253906 -9.367188 3.953125 -9.390625 C 3.660156 -9.421875 3.421875 -9.4375 3.234375 -9.4375 L 2.140625 -9.4375 L 2.140625 -5.203125 L 2.90625 -5.203125 C 3.226562 -5.203125 3.566406 -5.207031 3.921875 -5.21875 C 4.285156 -5.226562 4.75 -5.257812 5.3125 -5.3125 L 5.3125 -4.890625 C 4.75 -4.953125 4.285156 -4.984375 3.921875 -4.984375 C 3.566406 -4.992188 3.226562 -5 2.90625 -5 L 2.140625 -5 L 2.140625 -0.1875 L 3.484375 -0.1875 C 3.890625 -0.1875 4.257812 -0.195312 4.59375 -0.21875 C 4.925781 -0.238281 5.269531 -0.28125 5.625 -0.34375 C 5.988281 -0.414062 6.394531 -0.519531 6.84375 -0.65625 L 6.5 0 L 0.84375 0 C 0.875 -0.332031 0.894531 -0.617188 0.90625 -0.859375 C 0.925781 -1.109375 0.9375 -1.347656 0.9375 -1.578125 C 0.945312 -1.816406 0.953125 -2.082031 0.953125 -2.375 L 0.953125 -7.25 C 0.953125 -7.550781 0.945312 -7.816406 0.9375 -8.046875 C 0.9375 -8.273438 0.925781 -8.507812 0.90625 -8.75 C 0.894531 -9 0.875 -9.289062 0.84375 -9.625 Z M 0.84375 -9.625 "/></g></g><g style="fill:#b89c52;fill-opacity:1;"><g transform="translate(45.333456, 34.362869)"><path style="stroke:none" d="M 6.40625 -2.28125 C 6.613281 -1.75 6.820312 -1.328125 7.03125 -1.015625 C 7.238281 -0.710938 7.472656 -0.5 7.734375 -0.375 C 8.003906 -0.25 8.320312 -0.1875 8.6875 -0.1875 L 8.6875 0 C 8.03125 0 7.476562 -0.0625 7.03125 -0.1875 C 6.582031 -0.320312 6.21875 -0.550781 5.9375 -0.875 C 5.65625 -1.195312 5.410156 -1.640625 5.203125 -2.203125 C 4.984375 -2.835938 4.742188 -3.3125 4.484375 -3.625 C 4.234375 -3.945312 3.953125 -4.164062 3.640625 -4.28125 C 3.328125 -4.394531 2.960938 -4.453125 2.546875 -4.453125 L 2.125 -4.453125 L 2.125 -2.375 C 2.125 -2.082031 2.125 -1.816406 2.125 -1.578125 C 2.125 -1.347656 2.128906 -1.109375 2.140625 -0.859375 C 2.160156 -0.617188 2.1875 -0.332031 2.21875 0 L 0.84375 0 C 0.863281 -0.332031 0.878906 -0.617188 0.890625 -0.859375 C 0.910156 -1.109375 0.921875 -1.347656 0.921875 -1.578125 C 0.929688 -1.816406 0.9375 -2.082031 0.9375 -2.375 L 0.9375 -7.25 C 0.9375 -7.550781 0.929688 -7.816406 0.921875 -8.046875 C 0.921875 -8.273438 0.910156 -8.507812 0.890625 -8.75 C 0.878906 -9 0.863281 -9.289062 0.84375 -9.625 L 3.0625 -9.625 C 3.601562 -9.625 4.113281 -9.582031 4.59375 -9.5 C 5.070312 -9.425781 5.5 -9.296875 5.875 -9.109375 C 6.25 -8.921875 6.539062 -8.660156 6.75 -8.328125 C 6.96875 -7.992188 7.078125 -7.5625 7.078125 -7.03125 C 7.078125 -6.425781 6.9375 -5.941406 6.65625 -5.578125 C 6.375 -5.222656 5.992188 -4.960938 5.515625 -4.796875 C 5.035156 -4.628906 4.5 -4.519531 3.90625 -4.46875 C 4.425781 -4.375 4.898438 -4.164062 5.328125 -3.84375 C 5.765625 -3.53125 6.125 -3.007812 6.40625 -2.28125 Z M 2.125 -4.640625 L 3.0625 -4.640625 C 3.40625 -4.640625 3.742188 -4.675781 4.078125 -4.75 C 4.410156 -4.820312 4.707031 -4.945312 4.96875 -5.125 C 5.238281 -5.300781 5.453125 -5.539062 5.609375 -5.84375 C 5.765625 -6.15625 5.84375 -6.550781 5.84375 -7.03125 C 5.84375 -7.519531 5.765625 -7.914062 5.609375 -8.21875 C 5.453125 -8.53125 5.238281 -8.773438 4.96875 -8.953125 C 4.707031 -9.128906 4.410156 -9.253906 4.078125 -9.328125 C 3.742188 -9.398438 3.40625 -9.4375 3.0625 -9.4375 L 2.125 -9.4375 Z M 2.125 -4.640625 "/></g></g><g style="fill:#b89c52;fill-opacity:1;"><g transform="translate(4.100859, 46.128085)"><path style="stroke:none" d="M 0.484375 -2.875 L 1.4375 -3.34375 C 1.519531 -2.675781 1.695312 -2.085938 1.96875 -1.578125 C 2.25 -1.066406 2.601562 -0.664062 3.03125 -0.375 C 3.457031 -0.09375 3.9375 0.046875 4.46875 0.046875 C 5.019531 0.046875 5.476562 -0.101562 5.84375 -0.40625 C 6.21875 -0.707031 6.40625 -1.160156 6.40625 -1.765625 C 6.40625 -2.117188 6.289062 -2.445312 6.0625 -2.75 C 5.832031 -3.0625 5.5 -3.382812 5.0625 -3.71875 C 4.632812 -4.050781 4.125 -4.445312 3.53125 -4.90625 C 2.957031 -5.332031 2.488281 -5.695312 2.125 -6 C 1.769531 -6.300781 1.503906 -6.597656 1.328125 -6.890625 C 1.160156 -7.191406 1.078125 -7.535156 1.078125 -7.921875 C 1.078125 -8.546875 1.300781 -9.023438 1.75 -9.359375 C 2.207031 -9.691406 2.785156 -9.859375 3.484375 -9.859375 C 4.203125 -9.859375 4.828125 -9.675781 5.359375 -9.3125 C 5.890625 -8.945312 6.363281 -8.390625 6.78125 -7.640625 L 5.828125 -7.28125 C 5.753906 -7.675781 5.625 -8.054688 5.4375 -8.421875 C 5.257812 -8.785156 5.007812 -9.082031 4.6875 -9.3125 C 4.363281 -9.550781 3.941406 -9.671875 3.421875 -9.671875 C 2.910156 -9.671875 2.507812 -9.550781 2.21875 -9.3125 C 1.925781 -9.070312 1.78125 -8.75 1.78125 -8.34375 C 1.78125 -8.03125 1.859375 -7.757812 2.015625 -7.53125 C 2.171875 -7.300781 2.410156 -7.0625 2.734375 -6.8125 C 3.054688 -6.5625 3.46875 -6.253906 3.96875 -5.890625 C 4.65625 -5.390625 5.226562 -4.945312 5.6875 -4.5625 C 6.144531 -4.1875 6.492188 -3.816406 6.734375 -3.453125 C 6.972656 -3.085938 7.09375 -2.65625 7.09375 -2.15625 C 7.09375 -1.613281 6.96875 -1.164062 6.71875 -0.8125 C 6.476562 -0.457031 6.148438 -0.191406 5.734375 -0.015625 C 5.328125 0.148438 4.878906 0.234375 4.390625 0.234375 C 3.828125 0.234375 3.296875 0.140625 2.796875 -0.046875 C 2.304688 -0.242188 1.863281 -0.570312 1.46875 -1.03125 C 1.082031 -1.488281 0.753906 -2.101562 0.484375 -2.875 Z M 0.484375 -2.875 "/></g></g><g style="fill:#b89c52;fill-opacity:1;"><g transform="translate(10.996872, 46.128085)"><path style="stroke:none" d="M 6.984375 -1.28125 C 7.054688 -1.007812 7.125 -0.785156 7.1875 -0.609375 C 7.257812 -0.429688 7.359375 -0.226562 7.484375 0 L 5.984375 0 C 5.972656 -0.269531 5.941406 -0.488281 5.890625 -0.65625 C 5.847656 -0.820312 5.796875 -1.03125 5.734375 -1.28125 L 5.09375 -3.5 L 1.875 -3.5 L 1.234375 -1.234375 C 1.160156 -1.003906 1.097656 -0.804688 1.046875 -0.640625 C 1.003906 -0.472656 0.972656 -0.257812 0.953125 0 L 0.609375 0 C 0.742188 -0.257812 0.832031 -0.46875 0.875 -0.625 C 0.914062 -0.789062 0.96875 -0.988281 1.03125 -1.21875 L 3.234375 -8.96875 C 3.265625 -9.101562 3.273438 -9.210938 3.265625 -9.296875 C 3.265625 -9.390625 3.25 -9.5 3.21875 -9.625 L 4.625 -9.625 Z M 1.921875 -3.6875 L 5.046875 -3.6875 L 3.484375 -9.21875 Z M 1.921875 -3.6875 "/></g></g><g style="fill:#b89c52;fill-opacity:1;"><g transform="translate(18.410398, 46.128085)"><path style="stroke:none" d="M 6.40625 -2.28125 C 6.613281 -1.75 6.820312 -1.328125 7.03125 -1.015625 C 7.238281 -0.710938 7.472656 -0.5 7.734375 -0.375 C 8.003906 -0.25 8.320312 -0.1875 8.6875 -0.1875 L 8.6875 0 C 8.03125 0 7.476562 -0.0625 7.03125 -0.1875 C 6.582031 -0.320312 6.21875 -0.550781 5.9375 -0.875 C 5.65625 -1.195312 5.410156 -1.640625 5.203125 -2.203125 C 4.984375 -2.835938 4.742188 -3.3125 4.484375 -3.625 C 4.234375 -3.945312 3.953125 -4.164062 3.640625 -4.28125 C 3.328125 -4.394531 2.960938 -4.453125 2.546875 -4.453125 L 2.125 -4.453125 L 2.125 -2.375 C 2.125 -2.082031 2.125 -1.816406 2.125 -1.578125 C 2.125 -1.347656 2.128906 -1.109375 2.140625 -0.859375 C 2.160156 -0.617188 2.1875 -0.332031 2.21875 0 L 0.84375 0 C 0.863281 -0.332031 0.878906 -0.617188 0.890625 -0.859375 C 0.910156 -1.109375 0.921875 -1.347656 0.921875 -1.578125 C 0.929688 -1.816406 0.9375 -2.082031 0.9375 -2.375 L 0.9375 -7.25 C 0.9375 -7.550781 0.929688 -7.816406 0.921875 -8.046875 C 0.921875 -8.273438 0.910156 -8.507812 0.890625 -8.75 C 0.878906 -9 0.863281 -9.289062 0.84375 -9.625 L 3.0625 -9.625 C 3.601562 -9.625 4.113281 -9.582031 4.59375 -9.5 C 5.070312 -9.425781 5.5 -9.296875 5.875 -9.109375 C 6.25 -8.921875 6.539062 -8.660156 6.75 -8.328125 C 6.96875 -7.992188 7.078125 -7.5625 7.078125 -7.03125 C 7.078125 -6.425781 6.9375 -5.941406 6.65625 -5.578125 C 6.375 -5.222656 5.992188 -4.960938 5.515625 -4.796875 C 5.035156 -4.628906 4.5 -4.519531 3.90625 -4.46875 C 4.425781 -4.375 4.898438 -4.164062 5.328125 -3.84375 C 5.765625 -3.53125 6.125 -3.007812 6.40625 -2.28125 Z M 2.125 -4.640625 L 3.0625 -4.640625 C 3.40625 -4.640625 3.742188 -4.675781 4.078125 -4.75 C 4.410156 -4.820312 4.707031 -4.945312 4.96875 -5.125 C 5.238281 -5.300781 5.453125 -5.539062 5.609375 -5.84375 C 5.765625 -6.15625 5.84375 -6.550781 5.84375 -7.03125 C 5.84375 -7.519531 5.765625 -7.914062 5.609375 -8.21875 C 5.453125 -8.53125 5.238281 -8.773438 4.96875 -8.953125 C 4.707031 -9.128906 4.410156 -9.253906 4.078125 -9.328125 C 3.742188 -9.398438 3.40625 -9.4375 3.0625 -9.4375 L 2.125 -9.4375 Z M 2.125 -4.640625 "/></g></g><g style="fill:#b89c52;fill-opacity:1;"><g transform="translate(26.87099, 46.128085)"><path style="stroke:none" d="M 7.359375 -1.28125 C 7.566406 -1.03125 7.757812 -0.8125 7.9375 -0.625 C 8.113281 -0.4375 8.34375 -0.226562 8.625 0 L 6.78125 0 C 6.65625 -0.226562 6.523438 -0.425781 6.390625 -0.59375 C 6.265625 -0.769531 6.085938 -0.992188 5.859375 -1.265625 L 2.890625 -4.890625 L 2.125 -4.0625 L 2.125 -2.375 C 2.125 -2.082031 2.125 -1.816406 2.125 -1.578125 C 2.125 -1.347656 2.128906 -1.109375 2.140625 -0.859375 C 2.160156 -0.617188 2.1875 -0.332031 2.21875 0 L 0.84375 0 C 0.863281 -0.332031 0.878906 -0.617188 0.890625 -0.859375 C 0.910156 -1.109375 0.921875 -1.347656 0.921875 -1.578125 C 0.929688 -1.816406 0.9375 -2.082031 0.9375 -2.375 L 0.9375 -7.25 C 0.9375 -7.550781 0.929688 -7.816406 0.921875 -8.046875 C 0.921875 -8.273438 0.910156 -8.507812 0.890625 -8.75 C 0.878906 -9 0.863281 -9.289062 0.84375 -9.625 L 2.21875 -9.625 C 2.1875 -9.289062 2.160156 -9 2.140625 -8.75 C 2.128906 -8.507812 2.125 -8.273438 2.125 -8.046875 C 2.125 -7.816406 2.125 -7.550781 2.125 -7.25 L 2.125 -4.34375 L 5.90625 -8.4375 C 6.101562 -8.65625 6.273438 -8.847656 6.421875 -9.015625 C 6.578125 -9.191406 6.726562 -9.394531 6.875 -9.625 L 7.375 -9.625 C 7.101562 -9.394531 6.878906 -9.191406 6.703125 -9.015625 C 6.523438 -8.847656 6.34375 -8.660156 6.15625 -8.453125 L 3.703125 -5.796875 Z M 7.359375 -1.28125 "/></g></g><g style="fill:#b89c52;fill-opacity:1;"><g transform="translate(35.187158, 46.128085)"><path style="stroke:none" d="M 6.984375 -1.28125 C 7.054688 -1.007812 7.125 -0.785156 7.1875 -0.609375 C 7.257812 -0.429688 7.359375 -0.226562 7.484375 0 L 5.984375 0 C 5.972656 -0.269531 5.941406 -0.488281 5.890625 -0.65625 C 5.847656 -0.820312 5.796875 -1.03125 5.734375 -1.28125 L 5.09375 -3.5 L 1.875 -3.5 L 1.234375 -1.234375 C 1.160156 -1.003906 1.097656 -0.804688 1.046875 -0.640625 C 1.003906 -0.472656 0.972656 -0.257812 0.953125 0 L 0.609375 0 C 0.742188 -0.257812 0.832031 -0.46875 0.875 -0.625 C 0.914062 -0.789062 0.96875 -0.988281 1.03125 -1.21875 L 3.234375 -8.96875 C 3.265625 -9.101562 3.273438 -9.210938 3.265625 -9.296875 C 3.265625 -9.390625 3.25 -9.5 3.21875 -9.625 L 4.625 -9.625 Z M 1.921875 -3.6875 L 5.046875 -3.6875 L 3.484375 -9.21875 Z M 1.921875 -3.6875 "/></g></g><g style="fill:#b89c52;fill-opacity:1;"><g transform="translate(42.600685, 46.128085)"><path style="stroke:none" d="M 8.015625 -7.25 L 8.015625 -2.375 C 8.015625 -2.082031 8.015625 -1.816406 8.015625 -1.578125 C 8.023438 -1.347656 8.035156 -1.109375 8.046875 -0.859375 C 8.066406 -0.617188 8.085938 -0.332031 8.109375 0 L 6.75 0 L 1.109375 -9.15625 L 1.109375 -2.375 C 1.109375 -2.082031 1.109375 -1.816406 1.109375 -1.578125 C 1.117188 -1.347656 1.128906 -1.109375 1.140625 -0.859375 C 1.160156 -0.617188 1.179688 -0.332031 1.203125 0 L 0.84375 0 C 0.863281 -0.332031 0.878906 -0.617188 0.890625 -0.859375 C 0.910156 -1.109375 0.921875 -1.347656 0.921875 -1.578125 C 0.929688 -1.816406 0.9375 -2.082031 0.9375 -2.375 L 0.9375 -7.25 C 0.9375 -7.550781 0.929688 -7.816406 0.921875 -8.046875 C 0.921875 -8.273438 0.910156 -8.507812 0.890625 -8.75 C 0.878906 -9 0.863281 -9.289062 0.84375 -9.625 L 2.203125 -9.625 L 7.84375 -0.46875 L 7.84375 -7.25 C 7.84375 -7.550781 7.835938 -7.816406 7.828125 -8.046875 C 7.828125 -8.273438 7.820312 -8.507812 7.8125 -8.75 C 7.800781 -9 7.78125 -9.289062 7.75 -9.625 L 8.109375 -9.625 C 8.085938 -9.289062 8.066406 -9 8.046875 -8.75 C 8.035156 -8.507812 8.023438 -8.273438 8.015625 -8.046875 C 8.015625 -7.816406 8.015625 -7.550781 8.015625 -7.25 Z M 8.015625 -7.25 "/></g></g><g style="fill:#b89c52;fill-opacity:1;"><g transform="translate(50.880749, 46.128085)"><path style="stroke:none" d="M 7.0625 -8.5 L 4.84375 -4.15625 L 4.84375 -2.375 C 4.84375 -2.082031 4.84375 -1.816406 4.84375 -1.578125 C 4.84375 -1.347656 4.847656 -1.109375 4.859375 -0.859375 C 4.878906 -0.617188 4.898438 -0.332031 4.921875 0 L 3.546875 0 C 3.578125 -0.332031 3.597656 -0.617188 3.609375 -0.859375 C 3.628906 -1.109375 3.640625 -1.347656 3.640625 -1.578125 C 3.640625 -1.816406 3.640625 -2.082031 3.640625 -2.375 L 3.640625 -4.15625 L 1.34375 -8.5 C 1.226562 -8.726562 1.117188 -8.914062 1.015625 -9.0625 C 0.910156 -9.21875 0.773438 -9.40625 0.609375 -9.625 L 2.171875 -9.625 C 2.253906 -9.394531 2.332031 -9.203125 2.40625 -9.046875 C 2.476562 -8.898438 2.570312 -8.71875 2.6875 -8.5 L 4.796875 -4.53125 L 6.859375 -8.5 C 6.972656 -8.726562 7.066406 -8.914062 7.140625 -9.0625 C 7.210938 -9.207031 7.296875 -9.394531 7.390625 -9.625 L 7.71875 -9.625 C 7.5625 -9.394531 7.441406 -9.203125 7.359375 -9.046875 C 7.273438 -8.898438 7.175781 -8.71875 7.0625 -8.5 Z M 7.0625 -8.5 "/></g></g><g clip-rule="nonzero" clip-path="url(#752e89dfdf)"><path style=" stroke:none;fill-rule:nonzero;fill:#b89c52;fill-opacity:1;" d="M 32.667969 17.089844 C 32.839844 16.976562 33.042969 16.902344 33.261719 16.878906 L 37.886719 16.441406 L 33.261719 16 C 33.042969 15.976562 32.839844 15.902344 32.667969 15.789062 L 34.40625 13.683594 L 32.300781 15.421875 C 32.1875 15.25 32.109375 15.046875 32.089844 14.828125 L 31.648438 10.203125 L 31.207031 14.828125 C 31.1875 15.046875 31.113281 15.25 30.996094 15.421875 L 28.894531 13.683594 L 30.632812 15.789062 C 30.457031 15.902344 30.253906 15.976562 30.035156 16 L 25.414062 16.441406 L 30.035156 16.878906 C 30.253906 16.902344 30.457031 16.976562 30.632812 17.089844 L 28.894531 19.195312 L 30.996094 17.457031 C 31.113281 17.632812 31.1875 17.832031 31.207031 18.050781 L 31.648438 22.675781 L 32.089844 18.050781 C 32.109375 17.832031 32.1875 17.632812 32.300781 17.457031 L 34.40625 19.195312 L 32.667969 17.089844 "/><path style="fill:none;stroke-width:2.5;stroke-linecap:round;stroke-linejoin:round;stroke:#ba9f74;stroke-opacity:1;stroke-miterlimit:10;" d="M 2909.543583 2240.592641 C 2978.442494 2286.003287 3059.868479 2315.755089 3147.558002 2325.150395 L 5001.56506 2500.529441 L 3147.558002 2677.474371 C 3059.868479 2686.869677 2978.442494 2716.62148 2909.543583 2762.032126 L 3606.362114 3606.043784 L 2762.350455 2909.225253 C 2716.939809 2978.124164 2685.622122 3059.55015 2677.792701 3147.239673 L 2500.847771 5001.24673 L 2323.90284 3147.239673 C 2316.073419 3059.55015 2286.321616 2978.124164 2239.345086 2909.225253 L 1396.899312 3606.043784 L 2093.717842 2762.032126 C 2023.253047 2716.62148 1941.827062 2686.869677 1854.137539 2677.474371 L 1.696366 2500.529441 L 1854.137539 2325.150395 C 1941.827062 2315.755089 2023.253047 2286.003287 2093.717842 2240.592641 L 1396.899312 1396.580982 L 2239.345086 2093.399513 C 2286.321616 2022.934718 2316.073419 1943.074616 2323.90284 1855.385093 L 2500.847771 1.378036 L 2677.792701 1855.385093 C 2685.622122 1943.074616 2716.939809 2022.934718 2762.350455 2093.399513 L 3606.362114 1396.580982 Z M 2909.543583 2240.592641 " transform="matrix(0.0024946,0,0,-0.0024946,25.409831,22.679219)"/></g></g></svg>